<mxfile host="Electron" modified="2023-10-22T10:40:03.675Z" agent="Mozilla/5.0 (Windows NT 10.0; Win64; x64) AppleWebKit/537.36 (KHTML, like Gecko) draw.io/21.6.8 Chrome/114.0.5735.289 Electron/25.5.0 Safari/537.36" etag="I4y2WSWVM1dOUO8w03kO" version="21.6.8" type="device" pages="3">
  <diagram id="NdxEaQZBLmuDzxT4An0k" name="Architektur">
    <mxGraphModel dx="2023" dy="1169" grid="0" gridSize="10" guides="1" tooltips="1" connect="1" arrows="1" fold="1" page="1" pageScale="1" pageWidth="827" pageHeight="1169" math="0" shadow="0">
      <root>
        <mxCell id="0" />
        <mxCell id="1" parent="0" />
        <mxCell id="6VPZrVlqpcy0IsZP4w-S-40" value="" style="rounded=0;whiteSpace=wrap;html=1;fillColor=none;dashed=1;" parent="1" vertex="1">
          <mxGeometry x="70" y="23" width="683" height="512" as="geometry" />
        </mxCell>
        <mxCell id="a9fmLc2zL0mOmBXYJ5F6-189" value="" style="rounded=0;whiteSpace=wrap;html=1;fillColor=#d5e8d4;strokeColor=#82b366;" parent="1" vertex="1">
          <mxGeometry x="493" y="560" width="260" height="360" as="geometry" />
        </mxCell>
        <mxCell id="a9fmLc2zL0mOmBXYJ5F6-100" value="" style="rounded=0;whiteSpace=wrap;html=1;fillColor=#fff2cc;strokeColor=#d6b656;" parent="1" vertex="1">
          <mxGeometry x="70" y="556" width="260" height="420" as="geometry" />
        </mxCell>
        <mxCell id="a9fmLc2zL0mOmBXYJ5F6-2" value="Backend &lt;br&gt;(API)" style="ellipse;whiteSpace=wrap;html=1;" parent="1" vertex="1">
          <mxGeometry x="365" y="255" width="100" height="55" as="geometry" />
        </mxCell>
        <mxCell id="a9fmLc2zL0mOmBXYJ5F6-4" value="Web Client A" style="rounded=1;whiteSpace=wrap;html=1;" parent="1" vertex="1">
          <mxGeometry x="178" y="255" width="90" height="55" as="geometry" />
        </mxCell>
        <mxCell id="a9fmLc2zL0mOmBXYJ5F6-8" value="" style="endArrow=classic;startArrow=classic;html=1;rounded=0;exitX=1;exitY=0.5;exitDx=0;exitDy=0;entryX=0;entryY=0.5;entryDx=0;entryDy=0;" parent="1" source="a9fmLc2zL0mOmBXYJ5F6-4" target="a9fmLc2zL0mOmBXYJ5F6-2" edge="1">
          <mxGeometry width="50" height="50" relative="1" as="geometry">
            <mxPoint x="361" y="320" as="sourcePoint" />
            <mxPoint x="411" y="270" as="targetPoint" />
          </mxGeometry>
        </mxCell>
        <mxCell id="a9fmLc2zL0mOmBXYJ5F6-11" value="" style="endArrow=classic;startArrow=classic;html=1;rounded=0;entryX=0.5;entryY=1;entryDx=0;entryDy=0;exitX=0.5;exitY=0;exitDx=0;exitDy=0;" parent="1" source="S-Nv9ScUTfc7elyZ2DoP-10" target="a9fmLc2zL0mOmBXYJ5F6-2" edge="1">
          <mxGeometry width="50" height="50" relative="1" as="geometry">
            <mxPoint x="415" y="400" as="sourcePoint" />
            <mxPoint x="411" y="270" as="targetPoint" />
          </mxGeometry>
        </mxCell>
        <mxCell id="a9fmLc2zL0mOmBXYJ5F6-13" value="Web Client B" style="rounded=1;whiteSpace=wrap;html=1;" parent="1" vertex="1">
          <mxGeometry x="370" y="120" width="90" height="55" as="geometry" />
        </mxCell>
        <mxCell id="a9fmLc2zL0mOmBXYJ5F6-14" value="" style="endArrow=classic;startArrow=classic;html=1;rounded=0;entryX=0.5;entryY=1;entryDx=0;entryDy=0;exitX=0.5;exitY=0;exitDx=0;exitDy=0;" parent="1" source="a9fmLc2zL0mOmBXYJ5F6-2" target="a9fmLc2zL0mOmBXYJ5F6-13" edge="1">
          <mxGeometry width="50" height="50" relative="1" as="geometry">
            <mxPoint x="403" y="268" as="sourcePoint" />
            <mxPoint x="346" y="165" as="targetPoint" />
          </mxGeometry>
        </mxCell>
        <mxCell id="a9fmLc2zL0mOmBXYJ5F6-16" value="" style="endArrow=none;dashed=1;html=1;strokeWidth=2;curved=1;fillColor=#f8cecc;strokeColor=#b85450;" parent="1" edge="1">
          <mxGeometry width="50" height="50" relative="1" as="geometry">
            <mxPoint x="385" y="188" as="sourcePoint" />
            <mxPoint x="445" y="188" as="targetPoint" />
            <Array as="points">
              <mxPoint x="414" y="198" />
            </Array>
          </mxGeometry>
        </mxCell>
        <mxCell id="a9fmLc2zL0mOmBXYJ5F6-17" value="" style="endArrow=none;dashed=1;html=1;strokeWidth=2;curved=1;fillColor=#f8cecc;strokeColor=#b85450;" parent="1" edge="1">
          <mxGeometry width="50" height="50" relative="1" as="geometry">
            <mxPoint x="283" y="307.5" as="sourcePoint" />
            <mxPoint x="283" y="257.5" as="targetPoint" />
            <Array as="points">
              <mxPoint x="303" y="280" />
            </Array>
          </mxGeometry>
        </mxCell>
        <mxCell id="a9fmLc2zL0mOmBXYJ5F6-22" value="Postgres&lt;br&gt;DB" style="shape=cylinder3;whiteSpace=wrap;html=1;boundedLbl=1;backgroundOutline=1;size=15;" parent="1" vertex="1">
          <mxGeometry x="390" y="410" width="50" height="70" as="geometry" />
        </mxCell>
        <mxCell id="a9fmLc2zL0mOmBXYJ5F6-30" value="Assets" style="shape=table;startSize=30;container=1;collapsible=1;childLayout=tableLayout;fixedRows=1;rowLines=0;fontStyle=1;align=center;resizeLast=1;html=1;" parent="1" vertex="1">
          <mxGeometry x="70" y="556" width="260" height="420" as="geometry">
            <mxRectangle x="70" y="556" width="80" height="30" as="alternateBounds" />
          </mxGeometry>
        </mxCell>
        <mxCell id="a9fmLc2zL0mOmBXYJ5F6-31" value="" style="shape=tableRow;horizontal=0;startSize=0;swimlaneHead=0;swimlaneBody=0;fillColor=none;collapsible=0;dropTarget=0;points=[[0,0.5],[1,0.5]];portConstraint=eastwest;top=0;left=0;right=0;bottom=1;" parent="a9fmLc2zL0mOmBXYJ5F6-30" vertex="1">
          <mxGeometry y="30" width="260" height="30" as="geometry" />
        </mxCell>
        <mxCell id="a9fmLc2zL0mOmBXYJ5F6-32" value="ID" style="shape=partialRectangle;connectable=0;fillColor=none;top=0;left=0;bottom=0;right=0;fontStyle=1;overflow=hidden;whiteSpace=wrap;html=1;" parent="a9fmLc2zL0mOmBXYJ5F6-31" vertex="1">
          <mxGeometry width="40" height="30" as="geometry">
            <mxRectangle width="40" height="30" as="alternateBounds" />
          </mxGeometry>
        </mxCell>
        <mxCell id="a9fmLc2zL0mOmBXYJ5F6-33" value="Description" style="shape=partialRectangle;connectable=0;fillColor=none;top=0;left=0;bottom=0;right=0;align=left;spacingLeft=6;fontStyle=5;overflow=hidden;whiteSpace=wrap;html=1;" parent="a9fmLc2zL0mOmBXYJ5F6-31" vertex="1">
          <mxGeometry x="40" width="220" height="30" as="geometry">
            <mxRectangle width="220" height="30" as="alternateBounds" />
          </mxGeometry>
        </mxCell>
        <mxCell id="a9fmLc2zL0mOmBXYJ5F6-34" value="" style="shape=tableRow;horizontal=0;startSize=0;swimlaneHead=0;swimlaneBody=0;fillColor=none;collapsible=0;dropTarget=0;points=[[0,0.5],[1,0.5]];portConstraint=eastwest;top=0;left=0;right=0;bottom=0;" parent="a9fmLc2zL0mOmBXYJ5F6-30" vertex="1">
          <mxGeometry y="60" width="260" height="30" as="geometry" />
        </mxCell>
        <mxCell id="a9fmLc2zL0mOmBXYJ5F6-35" value="A01&amp;nbsp;" style="shape=partialRectangle;connectable=0;fillColor=none;top=0;left=0;bottom=0;right=0;editable=1;overflow=hidden;whiteSpace=wrap;html=1;" parent="a9fmLc2zL0mOmBXYJ5F6-34" vertex="1">
          <mxGeometry width="40" height="30" as="geometry">
            <mxRectangle width="40" height="30" as="alternateBounds" />
          </mxGeometry>
        </mxCell>
        <mxCell id="a9fmLc2zL0mOmBXYJ5F6-36" value="Zugangsdaten Kunde" style="shape=partialRectangle;connectable=0;fillColor=none;top=0;left=0;bottom=0;right=0;align=left;spacingLeft=6;overflow=hidden;whiteSpace=wrap;html=1;" parent="a9fmLc2zL0mOmBXYJ5F6-34" vertex="1">
          <mxGeometry x="40" width="220" height="30" as="geometry">
            <mxRectangle width="220" height="30" as="alternateBounds" />
          </mxGeometry>
        </mxCell>
        <mxCell id="a9fmLc2zL0mOmBXYJ5F6-37" value="" style="shape=tableRow;horizontal=0;startSize=0;swimlaneHead=0;swimlaneBody=0;fillColor=none;collapsible=0;dropTarget=0;points=[[0,0.5],[1,0.5]];portConstraint=eastwest;top=0;left=0;right=0;bottom=0;" parent="a9fmLc2zL0mOmBXYJ5F6-30" vertex="1">
          <mxGeometry y="90" width="260" height="30" as="geometry" />
        </mxCell>
        <mxCell id="a9fmLc2zL0mOmBXYJ5F6-38" value="A02&amp;nbsp;" style="shape=partialRectangle;connectable=0;fillColor=none;top=0;left=0;bottom=0;right=0;editable=1;overflow=hidden;whiteSpace=wrap;html=1;" parent="a9fmLc2zL0mOmBXYJ5F6-37" vertex="1">
          <mxGeometry width="40" height="30" as="geometry">
            <mxRectangle width="40" height="30" as="alternateBounds" />
          </mxGeometry>
        </mxCell>
        <mxCell id="a9fmLc2zL0mOmBXYJ5F6-39" value="Messtellen API Secret" style="shape=partialRectangle;connectable=0;fillColor=none;top=0;left=0;bottom=0;right=0;align=left;spacingLeft=6;overflow=hidden;whiteSpace=wrap;html=1;" parent="a9fmLc2zL0mOmBXYJ5F6-37" vertex="1">
          <mxGeometry x="40" width="220" height="30" as="geometry">
            <mxRectangle width="220" height="30" as="alternateBounds" />
          </mxGeometry>
        </mxCell>
        <mxCell id="a9fmLc2zL0mOmBXYJ5F6-40" value="" style="shape=tableRow;horizontal=0;startSize=0;swimlaneHead=0;swimlaneBody=0;fillColor=none;collapsible=0;dropTarget=0;points=[[0,0.5],[1,0.5]];portConstraint=eastwest;top=0;left=0;right=0;bottom=0;" parent="a9fmLc2zL0mOmBXYJ5F6-30" vertex="1">
          <mxGeometry y="120" width="260" height="30" as="geometry" />
        </mxCell>
        <mxCell id="a9fmLc2zL0mOmBXYJ5F6-41" value="A03&amp;nbsp;" style="shape=partialRectangle;connectable=0;fillColor=none;top=0;left=0;bottom=0;right=0;editable=1;overflow=hidden;whiteSpace=wrap;html=1;" parent="a9fmLc2zL0mOmBXYJ5F6-40" vertex="1">
          <mxGeometry width="40" height="30" as="geometry">
            <mxRectangle width="40" height="30" as="alternateBounds" />
          </mxGeometry>
        </mxCell>
        <mxCell id="a9fmLc2zL0mOmBXYJ5F6-42" value="Zugangsdaten Mitarbeiter" style="shape=partialRectangle;connectable=0;fillColor=none;top=0;left=0;bottom=0;right=0;align=left;spacingLeft=6;overflow=hidden;whiteSpace=wrap;html=1;" parent="a9fmLc2zL0mOmBXYJ5F6-40" vertex="1">
          <mxGeometry x="40" width="220" height="30" as="geometry">
            <mxRectangle width="220" height="30" as="alternateBounds" />
          </mxGeometry>
        </mxCell>
        <mxCell id="a9fmLc2zL0mOmBXYJ5F6-57" value="" style="shape=tableRow;horizontal=0;startSize=0;swimlaneHead=0;swimlaneBody=0;fillColor=none;collapsible=0;dropTarget=0;points=[[0,0.5],[1,0.5]];portConstraint=eastwest;top=0;left=0;right=0;bottom=0;" parent="a9fmLc2zL0mOmBXYJ5F6-30" vertex="1">
          <mxGeometry y="150" width="260" height="30" as="geometry" />
        </mxCell>
        <mxCell id="a9fmLc2zL0mOmBXYJ5F6-58" value="A04&amp;nbsp;" style="shape=partialRectangle;connectable=0;fillColor=none;top=0;left=0;bottom=0;right=0;editable=1;overflow=hidden;whiteSpace=wrap;html=1;" parent="a9fmLc2zL0mOmBXYJ5F6-57" vertex="1">
          <mxGeometry width="40" height="30" as="geometry">
            <mxRectangle width="40" height="30" as="alternateBounds" />
          </mxGeometry>
        </mxCell>
        <mxCell id="a9fmLc2zL0mOmBXYJ5F6-59" value="DB Secret" style="shape=partialRectangle;connectable=0;fillColor=none;top=0;left=0;bottom=0;right=0;align=left;spacingLeft=6;overflow=hidden;whiteSpace=wrap;html=1;" parent="a9fmLc2zL0mOmBXYJ5F6-57" vertex="1">
          <mxGeometry x="40" width="220" height="30" as="geometry">
            <mxRectangle width="220" height="30" as="alternateBounds" />
          </mxGeometry>
        </mxCell>
        <mxCell id="a9fmLc2zL0mOmBXYJ5F6-77" value="" style="shape=tableRow;horizontal=0;startSize=0;swimlaneHead=0;swimlaneBody=0;fillColor=none;collapsible=0;dropTarget=0;points=[[0,0.5],[1,0.5]];portConstraint=eastwest;top=0;left=0;right=0;bottom=0;" parent="a9fmLc2zL0mOmBXYJ5F6-30" vertex="1">
          <mxGeometry y="180" width="260" height="30" as="geometry" />
        </mxCell>
        <mxCell id="a9fmLc2zL0mOmBXYJ5F6-78" value="A05&amp;nbsp;" style="shape=partialRectangle;connectable=0;fillColor=none;top=0;left=0;bottom=0;right=0;editable=1;overflow=hidden;whiteSpace=wrap;html=1;" parent="a9fmLc2zL0mOmBXYJ5F6-77" vertex="1">
          <mxGeometry width="40" height="30" as="geometry">
            <mxRectangle width="40" height="30" as="alternateBounds" />
          </mxGeometry>
        </mxCell>
        <mxCell id="a9fmLc2zL0mOmBXYJ5F6-79" value="Tarifinformationen" style="shape=partialRectangle;connectable=0;fillColor=none;top=0;left=0;bottom=0;right=0;align=left;spacingLeft=6;overflow=hidden;whiteSpace=wrap;html=1;" parent="a9fmLc2zL0mOmBXYJ5F6-77" vertex="1">
          <mxGeometry x="40" width="220" height="30" as="geometry">
            <mxRectangle width="220" height="30" as="alternateBounds" />
          </mxGeometry>
        </mxCell>
        <mxCell id="a9fmLc2zL0mOmBXYJ5F6-80" value="" style="shape=tableRow;horizontal=0;startSize=0;swimlaneHead=0;swimlaneBody=0;fillColor=none;collapsible=0;dropTarget=0;points=[[0,0.5],[1,0.5]];portConstraint=eastwest;top=0;left=0;right=0;bottom=0;" parent="a9fmLc2zL0mOmBXYJ5F6-30" vertex="1">
          <mxGeometry y="210" width="260" height="30" as="geometry" />
        </mxCell>
        <mxCell id="a9fmLc2zL0mOmBXYJ5F6-81" value="A06.0&amp;nbsp;" style="shape=partialRectangle;connectable=0;fillColor=none;top=0;left=0;bottom=0;right=0;editable=1;overflow=hidden;whiteSpace=wrap;html=1;" parent="a9fmLc2zL0mOmBXYJ5F6-80" vertex="1">
          <mxGeometry width="40" height="30" as="geometry">
            <mxRectangle width="40" height="30" as="alternateBounds" />
          </mxGeometry>
        </mxCell>
        <mxCell id="a9fmLc2zL0mOmBXYJ5F6-82" value="Kundendaten (Vertragsdaten)" style="shape=partialRectangle;connectable=0;fillColor=none;top=0;left=0;bottom=0;right=0;align=left;spacingLeft=6;overflow=hidden;whiteSpace=wrap;html=1;" parent="a9fmLc2zL0mOmBXYJ5F6-80" vertex="1">
          <mxGeometry x="40" width="220" height="30" as="geometry">
            <mxRectangle width="220" height="30" as="alternateBounds" />
          </mxGeometry>
        </mxCell>
        <mxCell id="a9fmLc2zL0mOmBXYJ5F6-96" value="" style="shape=tableRow;horizontal=0;startSize=0;swimlaneHead=0;swimlaneBody=0;fillColor=none;collapsible=0;dropTarget=0;points=[[0,0.5],[1,0.5]];portConstraint=eastwest;top=0;left=0;right=0;bottom=0;" parent="a9fmLc2zL0mOmBXYJ5F6-30" vertex="1">
          <mxGeometry y="240" width="260" height="30" as="geometry" />
        </mxCell>
        <mxCell id="a9fmLc2zL0mOmBXYJ5F6-97" value="A06.1" style="shape=partialRectangle;connectable=0;fillColor=none;top=0;left=0;bottom=0;right=0;editable=1;overflow=hidden;whiteSpace=wrap;html=1;" parent="a9fmLc2zL0mOmBXYJ5F6-96" vertex="1">
          <mxGeometry width="40" height="30" as="geometry">
            <mxRectangle width="40" height="30" as="alternateBounds" />
          </mxGeometry>
        </mxCell>
        <mxCell id="a9fmLc2zL0mOmBXYJ5F6-98" value="Kundendaten (Person)" style="shape=partialRectangle;connectable=0;fillColor=none;top=0;left=0;bottom=0;right=0;align=left;spacingLeft=6;overflow=hidden;whiteSpace=wrap;html=1;" parent="a9fmLc2zL0mOmBXYJ5F6-96" vertex="1">
          <mxGeometry x="40" width="220" height="30" as="geometry">
            <mxRectangle width="220" height="30" as="alternateBounds" />
          </mxGeometry>
        </mxCell>
        <mxCell id="a9fmLc2zL0mOmBXYJ5F6-101" value="" style="shape=tableRow;horizontal=0;startSize=0;swimlaneHead=0;swimlaneBody=0;fillColor=none;collapsible=0;dropTarget=0;points=[[0,0.5],[1,0.5]];portConstraint=eastwest;top=0;left=0;right=0;bottom=0;" parent="a9fmLc2zL0mOmBXYJ5F6-30" vertex="1">
          <mxGeometry y="270" width="260" height="30" as="geometry" />
        </mxCell>
        <mxCell id="a9fmLc2zL0mOmBXYJ5F6-102" value="A06.2" style="shape=partialRectangle;connectable=0;fillColor=none;top=0;left=0;bottom=0;right=0;editable=1;overflow=hidden;whiteSpace=wrap;html=1;" parent="a9fmLc2zL0mOmBXYJ5F6-101" vertex="1">
          <mxGeometry width="40" height="30" as="geometry">
            <mxRectangle width="40" height="30" as="alternateBounds" />
          </mxGeometry>
        </mxCell>
        <mxCell id="a9fmLc2zL0mOmBXYJ5F6-103" value="Kundendaten (Bankdaten)" style="shape=partialRectangle;connectable=0;fillColor=none;top=0;left=0;bottom=0;right=0;align=left;spacingLeft=6;overflow=hidden;whiteSpace=wrap;html=1;" parent="a9fmLc2zL0mOmBXYJ5F6-101" vertex="1">
          <mxGeometry x="40" width="220" height="30" as="geometry">
            <mxRectangle width="220" height="30" as="alternateBounds" />
          </mxGeometry>
        </mxCell>
        <mxCell id="a9fmLc2zL0mOmBXYJ5F6-104" value="" style="shape=tableRow;horizontal=0;startSize=0;swimlaneHead=0;swimlaneBody=0;fillColor=none;collapsible=0;dropTarget=0;points=[[0,0.5],[1,0.5]];portConstraint=eastwest;top=0;left=0;right=0;bottom=0;" parent="a9fmLc2zL0mOmBXYJ5F6-30" vertex="1">
          <mxGeometry y="300" width="260" height="30" as="geometry" />
        </mxCell>
        <mxCell id="a9fmLc2zL0mOmBXYJ5F6-105" value="A06.3" style="shape=partialRectangle;connectable=0;fillColor=none;top=0;left=0;bottom=0;right=0;editable=1;overflow=hidden;whiteSpace=wrap;html=1;" parent="a9fmLc2zL0mOmBXYJ5F6-104" vertex="1">
          <mxGeometry width="40" height="30" as="geometry">
            <mxRectangle width="40" height="30" as="alternateBounds" />
          </mxGeometry>
        </mxCell>
        <mxCell id="a9fmLc2zL0mOmBXYJ5F6-106" value="Kundendaten (Messdaten)" style="shape=partialRectangle;connectable=0;fillColor=none;top=0;left=0;bottom=0;right=0;align=left;spacingLeft=6;overflow=hidden;whiteSpace=wrap;html=1;" parent="a9fmLc2zL0mOmBXYJ5F6-104" vertex="1">
          <mxGeometry x="40" width="220" height="30" as="geometry">
            <mxRectangle width="220" height="30" as="alternateBounds" />
          </mxGeometry>
        </mxCell>
        <mxCell id="a9fmLc2zL0mOmBXYJ5F6-108" value="" style="shape=tableRow;horizontal=0;startSize=0;swimlaneHead=0;swimlaneBody=0;fillColor=none;collapsible=0;dropTarget=0;points=[[0,0.5],[1,0.5]];portConstraint=eastwest;top=0;left=0;right=0;bottom=0;" parent="a9fmLc2zL0mOmBXYJ5F6-30" vertex="1">
          <mxGeometry y="330" width="260" height="30" as="geometry" />
        </mxCell>
        <mxCell id="a9fmLc2zL0mOmBXYJ5F6-109" value="A06.4" style="shape=partialRectangle;connectable=0;fillColor=none;top=0;left=0;bottom=0;right=0;editable=1;overflow=hidden;whiteSpace=wrap;html=1;" parent="a9fmLc2zL0mOmBXYJ5F6-108" vertex="1">
          <mxGeometry width="40" height="30" as="geometry">
            <mxRectangle width="40" height="30" as="alternateBounds" />
          </mxGeometry>
        </mxCell>
        <mxCell id="a9fmLc2zL0mOmBXYJ5F6-110" value="Kundendaten (Rechnungen)" style="shape=partialRectangle;connectable=0;fillColor=none;top=0;left=0;bottom=0;right=0;align=left;spacingLeft=6;overflow=hidden;whiteSpace=wrap;html=1;" parent="a9fmLc2zL0mOmBXYJ5F6-108" vertex="1">
          <mxGeometry x="40" width="220" height="30" as="geometry">
            <mxRectangle width="220" height="30" as="alternateBounds" />
          </mxGeometry>
        </mxCell>
        <mxCell id="6VPZrVlqpcy0IsZP4w-S-52" value="" style="shape=tableRow;horizontal=0;startSize=0;swimlaneHead=0;swimlaneBody=0;fillColor=none;collapsible=0;dropTarget=0;points=[[0,0.5],[1,0.5]];portConstraint=eastwest;top=0;left=0;right=0;bottom=0;" parent="a9fmLc2zL0mOmBXYJ5F6-30" vertex="1">
          <mxGeometry y="360" width="260" height="30" as="geometry" />
        </mxCell>
        <mxCell id="6VPZrVlqpcy0IsZP4w-S-53" value="A07" style="shape=partialRectangle;connectable=0;fillColor=none;top=0;left=0;bottom=0;right=0;editable=1;overflow=hidden;whiteSpace=wrap;html=1;" parent="6VPZrVlqpcy0IsZP4w-S-52" vertex="1">
          <mxGeometry width="40" height="30" as="geometry">
            <mxRectangle width="40" height="30" as="alternateBounds" />
          </mxGeometry>
        </mxCell>
        <mxCell id="6VPZrVlqpcy0IsZP4w-S-54" value="Userdaten" style="shape=partialRectangle;connectable=0;fillColor=none;top=0;left=0;bottom=0;right=0;align=left;spacingLeft=6;overflow=hidden;whiteSpace=wrap;html=1;" parent="6VPZrVlqpcy0IsZP4w-S-52" vertex="1">
          <mxGeometry x="40" width="220" height="30" as="geometry">
            <mxRectangle width="220" height="30" as="alternateBounds" />
          </mxGeometry>
        </mxCell>
        <mxCell id="S-Nv9ScUTfc7elyZ2DoP-163" value="" style="shape=tableRow;horizontal=0;startSize=0;swimlaneHead=0;swimlaneBody=0;fillColor=none;collapsible=0;dropTarget=0;points=[[0,0.5],[1,0.5]];portConstraint=eastwest;top=0;left=0;right=0;bottom=0;" vertex="1" parent="a9fmLc2zL0mOmBXYJ5F6-30">
          <mxGeometry y="390" width="260" height="30" as="geometry" />
        </mxCell>
        <mxCell id="S-Nv9ScUTfc7elyZ2DoP-164" value="A08" style="shape=partialRectangle;connectable=0;fillColor=none;top=0;left=0;bottom=0;right=0;editable=1;overflow=hidden;whiteSpace=wrap;html=1;" vertex="1" parent="S-Nv9ScUTfc7elyZ2DoP-163">
          <mxGeometry width="40" height="30" as="geometry">
            <mxRectangle width="40" height="30" as="alternateBounds" />
          </mxGeometry>
        </mxCell>
        <mxCell id="S-Nv9ScUTfc7elyZ2DoP-165" value="Zugangsdaten DB Admin" style="shape=partialRectangle;connectable=0;fillColor=none;top=0;left=0;bottom=0;right=0;align=left;spacingLeft=6;overflow=hidden;whiteSpace=wrap;html=1;" vertex="1" parent="S-Nv9ScUTfc7elyZ2DoP-163">
          <mxGeometry x="40" width="220" height="30" as="geometry">
            <mxRectangle width="220" height="30" as="alternateBounds" />
          </mxGeometry>
        </mxCell>
        <mxCell id="a9fmLc2zL0mOmBXYJ5F6-60" value="" style="endArrow=none;dashed=1;html=1;strokeWidth=2;curved=1;fillColor=#f8cecc;strokeColor=#b85450;" parent="1" edge="1">
          <mxGeometry width="50" height="50" relative="1" as="geometry">
            <mxPoint x="390" y="387" as="sourcePoint" />
            <mxPoint x="440" y="387" as="targetPoint" />
            <Array as="points">
              <mxPoint x="420" y="377" />
            </Array>
          </mxGeometry>
        </mxCell>
        <mxCell id="a9fmLc2zL0mOmBXYJ5F6-88" value="Messstellen &lt;br&gt;API&lt;br&gt;(extern)" style="ellipse;whiteSpace=wrap;html=1;" parent="1" vertex="1">
          <mxGeometry x="592" y="255" width="100" height="55" as="geometry" />
        </mxCell>
        <mxCell id="a9fmLc2zL0mOmBXYJ5F6-89" value="" style="endArrow=classic;startArrow=classic;html=1;rounded=0;entryX=0;entryY=0.5;entryDx=0;entryDy=0;exitX=1;exitY=0.5;exitDx=0;exitDy=0;" parent="1" source="a9fmLc2zL0mOmBXYJ5F6-2" target="a9fmLc2zL0mOmBXYJ5F6-88" edge="1">
          <mxGeometry width="50" height="50" relative="1" as="geometry">
            <mxPoint x="453" y="429" as="sourcePoint" />
            <mxPoint x="691" y="280" as="targetPoint" />
          </mxGeometry>
        </mxCell>
        <mxCell id="a9fmLc2zL0mOmBXYJ5F6-155" value="Security Controls" style="shape=table;startSize=30;container=1;collapsible=1;childLayout=tableLayout;fixedRows=1;rowLines=0;fontStyle=1;align=center;resizeLast=1;html=1;" parent="1" vertex="1">
          <mxGeometry x="493" y="560" width="260" height="360" as="geometry">
            <mxRectangle x="492" y="521" width="80" height="30" as="alternateBounds" />
          </mxGeometry>
        </mxCell>
        <mxCell id="a9fmLc2zL0mOmBXYJ5F6-156" value="" style="shape=tableRow;horizontal=0;startSize=0;swimlaneHead=0;swimlaneBody=0;fillColor=none;collapsible=0;dropTarget=0;points=[[0,0.5],[1,0.5]];portConstraint=eastwest;top=0;left=0;right=0;bottom=1;" parent="a9fmLc2zL0mOmBXYJ5F6-155" vertex="1">
          <mxGeometry y="30" width="260" height="30" as="geometry" />
        </mxCell>
        <mxCell id="a9fmLc2zL0mOmBXYJ5F6-157" value="ID" style="shape=partialRectangle;connectable=0;fillColor=none;top=0;left=0;bottom=0;right=0;fontStyle=1;overflow=hidden;whiteSpace=wrap;html=1;" parent="a9fmLc2zL0mOmBXYJ5F6-156" vertex="1">
          <mxGeometry width="40" height="30" as="geometry">
            <mxRectangle width="40" height="30" as="alternateBounds" />
          </mxGeometry>
        </mxCell>
        <mxCell id="a9fmLc2zL0mOmBXYJ5F6-158" value="Description" style="shape=partialRectangle;connectable=0;fillColor=none;top=0;left=0;bottom=0;right=0;align=left;spacingLeft=6;fontStyle=5;overflow=hidden;whiteSpace=wrap;html=1;" parent="a9fmLc2zL0mOmBXYJ5F6-156" vertex="1">
          <mxGeometry x="40" width="220" height="30" as="geometry">
            <mxRectangle width="220" height="30" as="alternateBounds" />
          </mxGeometry>
        </mxCell>
        <mxCell id="a9fmLc2zL0mOmBXYJ5F6-159" value="" style="shape=tableRow;horizontal=0;startSize=0;swimlaneHead=0;swimlaneBody=0;fillColor=none;collapsible=0;dropTarget=0;points=[[0,0.5],[1,0.5]];portConstraint=eastwest;top=0;left=0;right=0;bottom=0;" parent="a9fmLc2zL0mOmBXYJ5F6-155" vertex="1">
          <mxGeometry y="60" width="260" height="30" as="geometry" />
        </mxCell>
        <mxCell id="a9fmLc2zL0mOmBXYJ5F6-160" value="C01&amp;nbsp;" style="shape=partialRectangle;connectable=0;fillColor=none;top=0;left=0;bottom=0;right=0;editable=1;overflow=hidden;whiteSpace=wrap;html=1;" parent="a9fmLc2zL0mOmBXYJ5F6-159" vertex="1">
          <mxGeometry width="40" height="30" as="geometry">
            <mxRectangle width="40" height="30" as="alternateBounds" />
          </mxGeometry>
        </mxCell>
        <mxCell id="a9fmLc2zL0mOmBXYJ5F6-161" value="TLS &amp;gt;= 1.3" style="shape=partialRectangle;connectable=0;fillColor=none;top=0;left=0;bottom=0;right=0;align=left;spacingLeft=6;overflow=hidden;whiteSpace=wrap;html=1;" parent="a9fmLc2zL0mOmBXYJ5F6-159" vertex="1">
          <mxGeometry x="40" width="220" height="30" as="geometry">
            <mxRectangle width="220" height="30" as="alternateBounds" />
          </mxGeometry>
        </mxCell>
        <mxCell id="a9fmLc2zL0mOmBXYJ5F6-162" value="" style="shape=tableRow;horizontal=0;startSize=0;swimlaneHead=0;swimlaneBody=0;fillColor=none;collapsible=0;dropTarget=0;points=[[0,0.5],[1,0.5]];portConstraint=eastwest;top=0;left=0;right=0;bottom=0;" parent="a9fmLc2zL0mOmBXYJ5F6-155" vertex="1">
          <mxGeometry y="90" width="260" height="30" as="geometry" />
        </mxCell>
        <mxCell id="a9fmLc2zL0mOmBXYJ5F6-163" value="C02&amp;nbsp;" style="shape=partialRectangle;connectable=0;fillColor=none;top=0;left=0;bottom=0;right=0;editable=1;overflow=hidden;whiteSpace=wrap;html=1;" parent="a9fmLc2zL0mOmBXYJ5F6-162" vertex="1">
          <mxGeometry width="40" height="30" as="geometry">
            <mxRectangle width="40" height="30" as="alternateBounds" />
          </mxGeometry>
        </mxCell>
        <mxCell id="a9fmLc2zL0mOmBXYJ5F6-164" value="Input Validation" style="shape=partialRectangle;connectable=0;fillColor=none;top=0;left=0;bottom=0;right=0;align=left;spacingLeft=6;overflow=hidden;whiteSpace=wrap;html=1;" parent="a9fmLc2zL0mOmBXYJ5F6-162" vertex="1">
          <mxGeometry x="40" width="220" height="30" as="geometry">
            <mxRectangle width="220" height="30" as="alternateBounds" />
          </mxGeometry>
        </mxCell>
        <mxCell id="a9fmLc2zL0mOmBXYJ5F6-165" value="" style="shape=tableRow;horizontal=0;startSize=0;swimlaneHead=0;swimlaneBody=0;fillColor=none;collapsible=0;dropTarget=0;points=[[0,0.5],[1,0.5]];portConstraint=eastwest;top=0;left=0;right=0;bottom=0;" parent="a9fmLc2zL0mOmBXYJ5F6-155" vertex="1">
          <mxGeometry y="120" width="260" height="30" as="geometry" />
        </mxCell>
        <mxCell id="a9fmLc2zL0mOmBXYJ5F6-166" value="C03&amp;nbsp;" style="shape=partialRectangle;connectable=0;fillColor=none;top=0;left=0;bottom=0;right=0;editable=1;overflow=hidden;whiteSpace=wrap;html=1;" parent="a9fmLc2zL0mOmBXYJ5F6-165" vertex="1">
          <mxGeometry width="40" height="30" as="geometry">
            <mxRectangle width="40" height="30" as="alternateBounds" />
          </mxGeometry>
        </mxCell>
        <mxCell id="a9fmLc2zL0mOmBXYJ5F6-167" value="DDOS Protection" style="shape=partialRectangle;connectable=0;fillColor=none;top=0;left=0;bottom=0;right=0;align=left;spacingLeft=6;overflow=hidden;whiteSpace=wrap;html=1;" parent="a9fmLc2zL0mOmBXYJ5F6-165" vertex="1">
          <mxGeometry x="40" width="220" height="30" as="geometry">
            <mxRectangle width="220" height="30" as="alternateBounds" />
          </mxGeometry>
        </mxCell>
        <mxCell id="a9fmLc2zL0mOmBXYJ5F6-168" value="" style="shape=tableRow;horizontal=0;startSize=0;swimlaneHead=0;swimlaneBody=0;fillColor=none;collapsible=0;dropTarget=0;points=[[0,0.5],[1,0.5]];portConstraint=eastwest;top=0;left=0;right=0;bottom=0;" parent="a9fmLc2zL0mOmBXYJ5F6-155" vertex="1">
          <mxGeometry y="150" width="260" height="30" as="geometry" />
        </mxCell>
        <mxCell id="a9fmLc2zL0mOmBXYJ5F6-169" value="C04&amp;nbsp;" style="shape=partialRectangle;connectable=0;fillColor=none;top=0;left=0;bottom=0;right=0;editable=1;overflow=hidden;whiteSpace=wrap;html=1;" parent="a9fmLc2zL0mOmBXYJ5F6-168" vertex="1">
          <mxGeometry width="40" height="30" as="geometry">
            <mxRectangle width="40" height="30" as="alternateBounds" />
          </mxGeometry>
        </mxCell>
        <mxCell id="a9fmLc2zL0mOmBXYJ5F6-170" value="Cookie Security (https &amp;amp; secure only)" style="shape=partialRectangle;connectable=0;fillColor=none;top=0;left=0;bottom=0;right=0;align=left;spacingLeft=6;overflow=hidden;whiteSpace=wrap;html=1;" parent="a9fmLc2zL0mOmBXYJ5F6-168" vertex="1">
          <mxGeometry x="40" width="220" height="30" as="geometry">
            <mxRectangle width="220" height="30" as="alternateBounds" />
          </mxGeometry>
        </mxCell>
        <mxCell id="a9fmLc2zL0mOmBXYJ5F6-171" value="" style="shape=tableRow;horizontal=0;startSize=0;swimlaneHead=0;swimlaneBody=0;fillColor=none;collapsible=0;dropTarget=0;points=[[0,0.5],[1,0.5]];portConstraint=eastwest;top=0;left=0;right=0;bottom=0;" parent="a9fmLc2zL0mOmBXYJ5F6-155" vertex="1">
          <mxGeometry y="180" width="260" height="30" as="geometry" />
        </mxCell>
        <mxCell id="a9fmLc2zL0mOmBXYJ5F6-172" value="C05&amp;nbsp;" style="shape=partialRectangle;connectable=0;fillColor=none;top=0;left=0;bottom=0;right=0;editable=1;overflow=hidden;whiteSpace=wrap;html=1;" parent="a9fmLc2zL0mOmBXYJ5F6-171" vertex="1">
          <mxGeometry width="40" height="30" as="geometry">
            <mxRectangle width="40" height="30" as="alternateBounds" />
          </mxGeometry>
        </mxCell>
        <mxCell id="a9fmLc2zL0mOmBXYJ5F6-173" value="Authentifizierung" style="shape=partialRectangle;connectable=0;fillColor=none;top=0;left=0;bottom=0;right=0;align=left;spacingLeft=6;overflow=hidden;whiteSpace=wrap;html=1;" parent="a9fmLc2zL0mOmBXYJ5F6-171" vertex="1">
          <mxGeometry x="40" width="220" height="30" as="geometry">
            <mxRectangle width="220" height="30" as="alternateBounds" />
          </mxGeometry>
        </mxCell>
        <mxCell id="a9fmLc2zL0mOmBXYJ5F6-174" value="" style="shape=tableRow;horizontal=0;startSize=0;swimlaneHead=0;swimlaneBody=0;fillColor=none;collapsible=0;dropTarget=0;points=[[0,0.5],[1,0.5]];portConstraint=eastwest;top=0;left=0;right=0;bottom=0;" parent="a9fmLc2zL0mOmBXYJ5F6-155" vertex="1">
          <mxGeometry y="210" width="260" height="30" as="geometry" />
        </mxCell>
        <mxCell id="a9fmLc2zL0mOmBXYJ5F6-175" value="C06" style="shape=partialRectangle;connectable=0;fillColor=none;top=0;left=0;bottom=0;right=0;editable=1;overflow=hidden;whiteSpace=wrap;html=1;" parent="a9fmLc2zL0mOmBXYJ5F6-174" vertex="1">
          <mxGeometry width="40" height="30" as="geometry">
            <mxRectangle width="40" height="30" as="alternateBounds" />
          </mxGeometry>
        </mxCell>
        <mxCell id="a9fmLc2zL0mOmBXYJ5F6-176" value="Autorisierung" style="shape=partialRectangle;connectable=0;fillColor=none;top=0;left=0;bottom=0;right=0;align=left;spacingLeft=6;overflow=hidden;whiteSpace=wrap;html=1;" parent="a9fmLc2zL0mOmBXYJ5F6-174" vertex="1">
          <mxGeometry x="40" width="220" height="30" as="geometry">
            <mxRectangle width="220" height="30" as="alternateBounds" />
          </mxGeometry>
        </mxCell>
        <mxCell id="a9fmLc2zL0mOmBXYJ5F6-177" value="" style="shape=tableRow;horizontal=0;startSize=0;swimlaneHead=0;swimlaneBody=0;fillColor=none;collapsible=0;dropTarget=0;points=[[0,0.5],[1,0.5]];portConstraint=eastwest;top=0;left=0;right=0;bottom=0;" parent="a9fmLc2zL0mOmBXYJ5F6-155" vertex="1">
          <mxGeometry y="240" width="260" height="30" as="geometry" />
        </mxCell>
        <mxCell id="a9fmLc2zL0mOmBXYJ5F6-178" value="C07" style="shape=partialRectangle;connectable=0;fillColor=none;top=0;left=0;bottom=0;right=0;editable=1;overflow=hidden;whiteSpace=wrap;html=1;" parent="a9fmLc2zL0mOmBXYJ5F6-177" vertex="1">
          <mxGeometry width="40" height="30" as="geometry">
            <mxRectangle width="40" height="30" as="alternateBounds" />
          </mxGeometry>
        </mxCell>
        <mxCell id="a9fmLc2zL0mOmBXYJ5F6-179" value="Verschlüsselung" style="shape=partialRectangle;connectable=0;fillColor=none;top=0;left=0;bottom=0;right=0;align=left;spacingLeft=6;overflow=hidden;whiteSpace=wrap;html=1;" parent="a9fmLc2zL0mOmBXYJ5F6-177" vertex="1">
          <mxGeometry x="40" width="220" height="30" as="geometry">
            <mxRectangle width="220" height="30" as="alternateBounds" />
          </mxGeometry>
        </mxCell>
        <mxCell id="a9fmLc2zL0mOmBXYJ5F6-180" value="" style="shape=tableRow;horizontal=0;startSize=0;swimlaneHead=0;swimlaneBody=0;fillColor=none;collapsible=0;dropTarget=0;points=[[0,0.5],[1,0.5]];portConstraint=eastwest;top=0;left=0;right=0;bottom=0;" parent="a9fmLc2zL0mOmBXYJ5F6-155" vertex="1">
          <mxGeometry y="270" width="260" height="30" as="geometry" />
        </mxCell>
        <mxCell id="a9fmLc2zL0mOmBXYJ5F6-181" value="C08" style="shape=partialRectangle;connectable=0;fillColor=none;top=0;left=0;bottom=0;right=0;editable=1;overflow=hidden;whiteSpace=wrap;html=1;" parent="a9fmLc2zL0mOmBXYJ5F6-180" vertex="1">
          <mxGeometry width="40" height="30" as="geometry">
            <mxRectangle width="40" height="30" as="alternateBounds" />
          </mxGeometry>
        </mxCell>
        <mxCell id="a9fmLc2zL0mOmBXYJ5F6-182" value="Hashing (Argon2)" style="shape=partialRectangle;connectable=0;fillColor=none;top=0;left=0;bottom=0;right=0;align=left;spacingLeft=6;overflow=hidden;whiteSpace=wrap;html=1;" parent="a9fmLc2zL0mOmBXYJ5F6-180" vertex="1">
          <mxGeometry x="40" width="220" height="30" as="geometry">
            <mxRectangle width="220" height="30" as="alternateBounds" />
          </mxGeometry>
        </mxCell>
        <mxCell id="a9fmLc2zL0mOmBXYJ5F6-183" value="" style="shape=tableRow;horizontal=0;startSize=0;swimlaneHead=0;swimlaneBody=0;fillColor=none;collapsible=0;dropTarget=0;points=[[0,0.5],[1,0.5]];portConstraint=eastwest;top=0;left=0;right=0;bottom=0;" parent="a9fmLc2zL0mOmBXYJ5F6-155" vertex="1">
          <mxGeometry y="300" width="260" height="30" as="geometry" />
        </mxCell>
        <mxCell id="a9fmLc2zL0mOmBXYJ5F6-184" value="" style="shape=partialRectangle;connectable=0;fillColor=none;top=0;left=0;bottom=0;right=0;editable=1;overflow=hidden;whiteSpace=wrap;html=1;" parent="a9fmLc2zL0mOmBXYJ5F6-183" vertex="1">
          <mxGeometry width="40" height="30" as="geometry">
            <mxRectangle width="40" height="30" as="alternateBounds" />
          </mxGeometry>
        </mxCell>
        <mxCell id="a9fmLc2zL0mOmBXYJ5F6-185" value="" style="shape=partialRectangle;connectable=0;fillColor=none;top=0;left=0;bottom=0;right=0;align=left;spacingLeft=6;overflow=hidden;whiteSpace=wrap;html=1;" parent="a9fmLc2zL0mOmBXYJ5F6-183" vertex="1">
          <mxGeometry x="40" width="220" height="30" as="geometry">
            <mxRectangle width="220" height="30" as="alternateBounds" />
          </mxGeometry>
        </mxCell>
        <mxCell id="a9fmLc2zL0mOmBXYJ5F6-186" value="" style="shape=tableRow;horizontal=0;startSize=0;swimlaneHead=0;swimlaneBody=0;fillColor=none;collapsible=0;dropTarget=0;points=[[0,0.5],[1,0.5]];portConstraint=eastwest;top=0;left=0;right=0;bottom=0;" parent="a9fmLc2zL0mOmBXYJ5F6-155" vertex="1">
          <mxGeometry y="330" width="260" height="30" as="geometry" />
        </mxCell>
        <mxCell id="a9fmLc2zL0mOmBXYJ5F6-187" value="" style="shape=partialRectangle;connectable=0;fillColor=none;top=0;left=0;bottom=0;right=0;editable=1;overflow=hidden;whiteSpace=wrap;html=1;" parent="a9fmLc2zL0mOmBXYJ5F6-186" vertex="1">
          <mxGeometry width="40" height="30" as="geometry">
            <mxRectangle width="40" height="30" as="alternateBounds" />
          </mxGeometry>
        </mxCell>
        <mxCell id="a9fmLc2zL0mOmBXYJ5F6-188" value="" style="shape=partialRectangle;connectable=0;fillColor=none;top=0;left=0;bottom=0;right=0;align=left;spacingLeft=6;overflow=hidden;whiteSpace=wrap;html=1;" parent="a9fmLc2zL0mOmBXYJ5F6-186" vertex="1">
          <mxGeometry x="40" width="220" height="30" as="geometry">
            <mxRectangle width="220" height="30" as="alternateBounds" />
          </mxGeometry>
        </mxCell>
        <mxCell id="6VPZrVlqpcy0IsZP4w-S-33" value="2" style="rhombus;whiteSpace=wrap;html=1;fillColor=#dae8fc;strokeColor=#6c8ebf;" parent="1" vertex="1">
          <mxGeometry x="400" y="206" width="30" height="32" as="geometry" />
        </mxCell>
        <mxCell id="6VPZrVlqpcy0IsZP4w-S-36" value="1" style="rhombus;whiteSpace=wrap;html=1;fillColor=#f8cecc;strokeColor=#b85450;" parent="1" vertex="1">
          <mxGeometry x="300" y="266.5" width="30" height="32" as="geometry" />
        </mxCell>
        <mxCell id="6VPZrVlqpcy0IsZP4w-S-37" value="5" style="rhombus;whiteSpace=wrap;html=1;fillColor=#f5f5f5;fontColor=#333333;strokeColor=#666666;" parent="1" vertex="1">
          <mxGeometry x="510" y="266.5" width="30" height="32" as="geometry" />
        </mxCell>
        <mxCell id="6VPZrVlqpcy0IsZP4w-S-39" value="3" style="rhombus;whiteSpace=wrap;html=1;fillColor=#d5e8d4;strokeColor=#82b366;" parent="1" vertex="1">
          <mxGeometry x="400" y="339" width="30" height="32" as="geometry" />
        </mxCell>
        <mxCell id="6VPZrVlqpcy0IsZP4w-S-42" value="Sachbearbteiter" style="text;html=1;align=center;verticalAlign=middle;resizable=0;points=[];autosize=1;strokeColor=default;fillColor=none;" parent="1" vertex="1">
          <mxGeometry x="303.5" y="40" width="103" height="26" as="geometry" />
        </mxCell>
        <mxCell id="6VPZrVlqpcy0IsZP4w-S-43" value="" style="endArrow=none;dashed=1;html=1;rounded=0;entryX=0.556;entryY=1.038;entryDx=0;entryDy=0;entryPerimeter=0;exitX=0.25;exitY=0;exitDx=0;exitDy=0;" parent="1" source="a9fmLc2zL0mOmBXYJ5F6-13" target="6VPZrVlqpcy0IsZP4w-S-42" edge="1">
          <mxGeometry width="50" height="50" relative="1" as="geometry">
            <mxPoint x="326" y="182" as="sourcePoint" />
            <mxPoint x="376" y="132" as="targetPoint" />
          </mxGeometry>
        </mxCell>
        <mxCell id="6VPZrVlqpcy0IsZP4w-S-45" value="Verwaltung" style="text;html=1;align=center;verticalAlign=middle;resizable=0;points=[];autosize=1;strokeColor=default;fillColor=none;" parent="1" vertex="1">
          <mxGeometry x="430" y="40" width="77" height="26" as="geometry" />
        </mxCell>
        <mxCell id="6VPZrVlqpcy0IsZP4w-S-47" value="" style="endArrow=none;dashed=1;html=1;rounded=0;entryX=0.75;entryY=0;entryDx=0;entryDy=0;exitX=0.462;exitY=0.978;exitDx=0;exitDy=0;exitPerimeter=0;" parent="1" source="6VPZrVlqpcy0IsZP4w-S-45" target="a9fmLc2zL0mOmBXYJ5F6-13" edge="1">
          <mxGeometry width="50" height="50" relative="1" as="geometry">
            <mxPoint x="425" y="91" as="sourcePoint" />
            <mxPoint x="425" y="130" as="targetPoint" />
          </mxGeometry>
        </mxCell>
        <mxCell id="6VPZrVlqpcy0IsZP4w-S-48" value="2.1" style="rhombus;whiteSpace=wrap;html=1;fillColor=#dae8fc;strokeColor=#6c8ebf;" parent="1" vertex="1">
          <mxGeometry x="362" y="78" width="30" height="32" as="geometry" />
        </mxCell>
        <mxCell id="6VPZrVlqpcy0IsZP4w-S-51" value="2.2" style="rhombus;whiteSpace=wrap;html=1;fillColor=#dae8fc;strokeColor=#6c8ebf;" parent="1" vertex="1">
          <mxGeometry x="435" y="78" width="30" height="32" as="geometry" />
        </mxCell>
        <mxCell id="6VPZrVlqpcy0IsZP4w-S-55" value="" style="rounded=0;whiteSpace=wrap;html=1;fillColor=none;dashed=1;" parent="1" vertex="1">
          <mxGeometry x="70" y="996" width="333" height="161" as="geometry" />
        </mxCell>
        <mxCell id="6VPZrVlqpcy0IsZP4w-S-58" value="Web Client A (Kunde)" style="text;html=1;align=center;verticalAlign=middle;resizable=0;points=[];autosize=1;strokeColor=default;fillColor=none;" parent="1" vertex="1">
          <mxGeometry x="77" y="1006" width="133" height="26" as="geometry" />
        </mxCell>
        <mxCell id="6VPZrVlqpcy0IsZP4w-S-60" value="Backend" style="text;html=1;align=center;verticalAlign=middle;resizable=0;points=[];autosize=1;strokeColor=default;fillColor=none;" parent="1" vertex="1">
          <mxGeometry x="293" y="1006" width="65" height="26" as="geometry" />
        </mxCell>
        <mxCell id="6VPZrVlqpcy0IsZP4w-S-63" value="" style="endArrow=classic;startArrow=classic;html=1;rounded=0;exitX=0;exitY=0.538;exitDx=0;exitDy=0;exitPerimeter=0;" parent="1" source="6VPZrVlqpcy0IsZP4w-S-60" target="6VPZrVlqpcy0IsZP4w-S-58" edge="1">
          <mxGeometry width="50" height="50" relative="1" as="geometry">
            <mxPoint x="367" y="876" as="sourcePoint" />
            <mxPoint x="417" y="826" as="targetPoint" />
          </mxGeometry>
        </mxCell>
        <mxCell id="6VPZrVlqpcy0IsZP4w-S-57" value="1.1" style="rhombus;whiteSpace=wrap;html=1;fillColor=#f8cecc;strokeColor=#b85450;" parent="1" vertex="1">
          <mxGeometry x="244" y="1003" width="30" height="32" as="geometry" />
        </mxCell>
        <mxCell id="6VPZrVlqpcy0IsZP4w-S-65" value="" style="endArrow=none;dashed=1;html=1;curved=1;fillColor=#f8cecc;strokeColor=#b85450;" parent="1" edge="1">
          <mxGeometry width="50" height="50" relative="1" as="geometry">
            <mxPoint x="223" y="1005" as="sourcePoint" />
            <mxPoint x="223" y="1035" as="targetPoint" />
            <Array as="points">
              <mxPoint x="228" y="1020" />
            </Array>
          </mxGeometry>
        </mxCell>
        <mxCell id="6VPZrVlqpcy0IsZP4w-S-70" value="A06.0" style="rounded=0;whiteSpace=wrap;html=1;fillColor=#fff2cc;strokeColor=#d6b656;" parent="1" vertex="1">
          <mxGeometry x="185" y="1087" width="38" height="20" as="geometry" />
        </mxCell>
        <mxCell id="6VPZrVlqpcy0IsZP4w-S-71" value="A06.1" style="rounded=0;whiteSpace=wrap;html=1;fillColor=#fff2cc;strokeColor=#d6b656;" parent="1" vertex="1">
          <mxGeometry x="223" y="1087" width="38" height="20" as="geometry" />
        </mxCell>
        <mxCell id="6VPZrVlqpcy0IsZP4w-S-72" value="A06.3" style="rounded=0;whiteSpace=wrap;html=1;fillColor=#fff2cc;strokeColor=#d6b656;" parent="1" vertex="1">
          <mxGeometry x="261" y="1087" width="38" height="20" as="geometry" />
        </mxCell>
        <mxCell id="6VPZrVlqpcy0IsZP4w-S-73" value="A06.4" style="rounded=0;whiteSpace=wrap;html=1;fillColor=#fff2cc;strokeColor=#d6b656;" parent="1" vertex="1">
          <mxGeometry x="299" y="1087" width="38" height="20" as="geometry" />
        </mxCell>
        <mxCell id="6VPZrVlqpcy0IsZP4w-S-74" value="A01" style="rounded=0;whiteSpace=wrap;html=1;fillColor=#fff2cc;strokeColor=#d6b656;" parent="1" vertex="1">
          <mxGeometry x="143" y="1087" width="38" height="20" as="geometry" />
        </mxCell>
        <mxCell id="6VPZrVlqpcy0IsZP4w-S-75" value="A07" style="rounded=0;whiteSpace=wrap;html=1;fillColor=#fff2cc;strokeColor=#d6b656;" parent="1" vertex="1">
          <mxGeometry x="342" y="1087" width="38" height="20" as="geometry" />
        </mxCell>
        <mxCell id="6VPZrVlqpcy0IsZP4w-S-76" value="C01" style="rounded=0;whiteSpace=wrap;html=1;fillColor=#d5e8d4;strokeColor=#82b366;" parent="1" vertex="1">
          <mxGeometry x="236" y="1047" width="38" height="20" as="geometry" />
        </mxCell>
        <mxCell id="6VPZrVlqpcy0IsZP4w-S-78" value="" style="endArrow=none;dashed=1;html=1;rounded=0;entryX=0.5;entryY=1;entryDx=0;entryDy=0;exitX=0.5;exitY=0;exitDx=0;exitDy=0;fillColor=#f5f5f5;strokeColor=#666666;edgeStyle=orthogonalEdgeStyle;" parent="1" source="6VPZrVlqpcy0IsZP4w-S-74" target="6VPZrVlqpcy0IsZP4w-S-76" edge="1">
          <mxGeometry width="50" height="50" relative="1" as="geometry">
            <mxPoint x="257" y="1042" as="sourcePoint" />
            <mxPoint x="307" y="992" as="targetPoint" />
          </mxGeometry>
        </mxCell>
        <mxCell id="6VPZrVlqpcy0IsZP4w-S-80" value="C02" style="rounded=0;whiteSpace=wrap;html=1;fillColor=#d5e8d4;strokeColor=#82b366;" parent="1" vertex="1">
          <mxGeometry x="236" y="1129" width="38" height="20" as="geometry" />
        </mxCell>
        <mxCell id="6VPZrVlqpcy0IsZP4w-S-82" value="" style="endArrow=none;dashed=1;html=1;rounded=0;entryX=0.5;entryY=1;entryDx=0;entryDy=0;exitX=0.5;exitY=0;exitDx=0;exitDy=0;fillColor=#f5f5f5;strokeColor=#666666;edgeStyle=orthogonalEdgeStyle;" parent="1" source="6VPZrVlqpcy0IsZP4w-S-80" target="6VPZrVlqpcy0IsZP4w-S-70" edge="1">
          <mxGeometry width="50" height="50" relative="1" as="geometry">
            <mxPoint x="153" y="1075" as="sourcePoint" />
            <mxPoint x="134" y="1075" as="targetPoint" />
          </mxGeometry>
        </mxCell>
        <mxCell id="6VPZrVlqpcy0IsZP4w-S-83" value="" style="endArrow=none;dashed=1;html=1;rounded=0;entryX=0.5;entryY=1;entryDx=0;entryDy=0;exitX=0.5;exitY=0;exitDx=0;exitDy=0;fillColor=#f5f5f5;strokeColor=#666666;edgeStyle=orthogonalEdgeStyle;" parent="1" source="6VPZrVlqpcy0IsZP4w-S-80" target="6VPZrVlqpcy0IsZP4w-S-71" edge="1">
          <mxGeometry width="50" height="50" relative="1" as="geometry">
            <mxPoint x="265" y="1099" as="sourcePoint" />
            <mxPoint x="214" y="1085" as="targetPoint" />
          </mxGeometry>
        </mxCell>
        <mxCell id="6VPZrVlqpcy0IsZP4w-S-84" value="" style="endArrow=none;dashed=1;html=1;rounded=0;entryX=0.5;entryY=1;entryDx=0;entryDy=0;exitX=0.5;exitY=0;exitDx=0;exitDy=0;fillColor=#f5f5f5;strokeColor=#666666;edgeStyle=orthogonalEdgeStyle;" parent="1" source="6VPZrVlqpcy0IsZP4w-S-80" target="6VPZrVlqpcy0IsZP4w-S-72" edge="1">
          <mxGeometry width="50" height="50" relative="1" as="geometry">
            <mxPoint x="275" y="1109" as="sourcePoint" />
            <mxPoint x="224" y="1095" as="targetPoint" />
          </mxGeometry>
        </mxCell>
        <mxCell id="6VPZrVlqpcy0IsZP4w-S-85" value="" style="endArrow=none;dashed=1;html=1;rounded=0;entryX=0.5;entryY=1;entryDx=0;entryDy=0;exitX=0.5;exitY=0;exitDx=0;exitDy=0;fillColor=#f5f5f5;strokeColor=#666666;edgeStyle=orthogonalEdgeStyle;" parent="1" source="6VPZrVlqpcy0IsZP4w-S-80" target="6VPZrVlqpcy0IsZP4w-S-73" edge="1">
          <mxGeometry width="50" height="50" relative="1" as="geometry">
            <mxPoint x="265" y="1099" as="sourcePoint" />
            <mxPoint x="290" y="1085" as="targetPoint" />
          </mxGeometry>
        </mxCell>
        <mxCell id="6VPZrVlqpcy0IsZP4w-S-86" value="" style="endArrow=none;dashed=1;html=1;rounded=0;entryX=0.5;entryY=1;entryDx=0;entryDy=0;exitX=0.5;exitY=0;exitDx=0;exitDy=0;fillColor=#f5f5f5;strokeColor=#666666;edgeStyle=orthogonalEdgeStyle;" parent="1" source="6VPZrVlqpcy0IsZP4w-S-80" target="6VPZrVlqpcy0IsZP4w-S-75" edge="1">
          <mxGeometry width="50" height="50" relative="1" as="geometry">
            <mxPoint x="275" y="1109" as="sourcePoint" />
            <mxPoint x="300" y="1095" as="targetPoint" />
          </mxGeometry>
        </mxCell>
        <mxCell id="6VPZrVlqpcy0IsZP4w-S-87" value="" style="endArrow=none;dashed=1;html=1;rounded=0;entryX=0.5;entryY=1;entryDx=0;entryDy=0;exitX=0.5;exitY=0;exitDx=0;exitDy=0;fillColor=#f5f5f5;strokeColor=#666666;edgeStyle=orthogonalEdgeStyle;" parent="1" source="6VPZrVlqpcy0IsZP4w-S-70" target="6VPZrVlqpcy0IsZP4w-S-76" edge="1">
          <mxGeometry width="50" height="50" relative="1" as="geometry">
            <mxPoint x="172" y="1090" as="sourcePoint" />
            <mxPoint x="265" y="1067" as="targetPoint" />
          </mxGeometry>
        </mxCell>
        <mxCell id="6VPZrVlqpcy0IsZP4w-S-88" value="" style="endArrow=none;dashed=1;html=1;rounded=0;entryX=0.5;entryY=1;entryDx=0;entryDy=0;exitX=0.5;exitY=0;exitDx=0;exitDy=0;fillColor=#f5f5f5;strokeColor=#666666;edgeStyle=orthogonalEdgeStyle;" parent="1" source="6VPZrVlqpcy0IsZP4w-S-71" target="6VPZrVlqpcy0IsZP4w-S-76" edge="1">
          <mxGeometry width="50" height="50" relative="1" as="geometry">
            <mxPoint x="214" y="1090" as="sourcePoint" />
            <mxPoint x="265" y="1067" as="targetPoint" />
          </mxGeometry>
        </mxCell>
        <mxCell id="6VPZrVlqpcy0IsZP4w-S-89" value="" style="endArrow=none;dashed=1;html=1;rounded=0;entryX=0.5;entryY=1;entryDx=0;entryDy=0;exitX=0.5;exitY=0;exitDx=0;exitDy=0;fillColor=#f5f5f5;strokeColor=#666666;edgeStyle=orthogonalEdgeStyle;" parent="1" source="6VPZrVlqpcy0IsZP4w-S-72" target="6VPZrVlqpcy0IsZP4w-S-76" edge="1">
          <mxGeometry width="50" height="50" relative="1" as="geometry">
            <mxPoint x="252" y="1090" as="sourcePoint" />
            <mxPoint x="265" y="1067" as="targetPoint" />
          </mxGeometry>
        </mxCell>
        <mxCell id="6VPZrVlqpcy0IsZP4w-S-90" value="" style="endArrow=none;dashed=1;html=1;rounded=0;entryX=0.5;entryY=1;entryDx=0;entryDy=0;exitX=0.5;exitY=0;exitDx=0;exitDy=0;fillColor=#f5f5f5;strokeColor=#666666;edgeStyle=orthogonalEdgeStyle;" parent="1" source="6VPZrVlqpcy0IsZP4w-S-73" target="6VPZrVlqpcy0IsZP4w-S-76" edge="1">
          <mxGeometry width="50" height="50" relative="1" as="geometry">
            <mxPoint x="290" y="1090" as="sourcePoint" />
            <mxPoint x="265" y="1067" as="targetPoint" />
          </mxGeometry>
        </mxCell>
        <mxCell id="6VPZrVlqpcy0IsZP4w-S-91" value="" style="endArrow=none;dashed=1;html=1;rounded=0;entryX=0.5;entryY=1;entryDx=0;entryDy=0;exitX=0.5;exitY=0;exitDx=0;exitDy=0;fillColor=#f5f5f5;strokeColor=#666666;edgeStyle=orthogonalEdgeStyle;" parent="1" source="6VPZrVlqpcy0IsZP4w-S-75" target="6VPZrVlqpcy0IsZP4w-S-76" edge="1">
          <mxGeometry width="50" height="50" relative="1" as="geometry">
            <mxPoint x="328" y="1090" as="sourcePoint" />
            <mxPoint x="265" y="1067" as="targetPoint" />
          </mxGeometry>
        </mxCell>
        <mxCell id="6VPZrVlqpcy0IsZP4w-S-92" value="C05" style="rounded=0;whiteSpace=wrap;html=1;fillColor=#d5e8d4;strokeColor=#82b366;" parent="1" vertex="1">
          <mxGeometry x="82" y="1077" width="38" height="20" as="geometry" />
        </mxCell>
        <mxCell id="6VPZrVlqpcy0IsZP4w-S-94" value="" style="endArrow=none;dashed=1;html=1;rounded=0;entryX=1;entryY=0.5;entryDx=0;entryDy=0;exitX=0;exitY=0.5;exitDx=0;exitDy=0;fillColor=#f5f5f5;strokeColor=#666666;edgeStyle=orthogonalEdgeStyle;" parent="1" source="6VPZrVlqpcy0IsZP4w-S-74" target="6VPZrVlqpcy0IsZP4w-S-92" edge="1">
          <mxGeometry width="50" height="50" relative="1" as="geometry">
            <mxPoint x="247" y="1034" as="sourcePoint" />
            <mxPoint x="297" y="984" as="targetPoint" />
          </mxGeometry>
        </mxCell>
        <mxCell id="6VPZrVlqpcy0IsZP4w-S-95" value="C08" style="rounded=0;whiteSpace=wrap;html=1;fillColor=#d5e8d4;strokeColor=#82b366;" parent="1" vertex="1">
          <mxGeometry x="143" y="1129" width="38" height="20" as="geometry" />
        </mxCell>
        <mxCell id="6VPZrVlqpcy0IsZP4w-S-96" value="" style="endArrow=none;dashed=1;html=1;rounded=0;entryX=0.5;entryY=0;entryDx=0;entryDy=0;exitX=0.5;exitY=1;exitDx=0;exitDy=0;fillColor=#f5f5f5;strokeColor=#666666;edgeStyle=orthogonalEdgeStyle;" parent="1" source="6VPZrVlqpcy0IsZP4w-S-74" target="6VPZrVlqpcy0IsZP4w-S-95" edge="1">
          <mxGeometry width="50" height="50" relative="1" as="geometry">
            <mxPoint x="146" y="1127" as="sourcePoint" />
            <mxPoint x="130" y="1107" as="targetPoint" />
          </mxGeometry>
        </mxCell>
        <mxCell id="6VPZrVlqpcy0IsZP4w-S-97" value="C03" style="rounded=0;whiteSpace=wrap;html=1;fillColor=#d5e8d4;strokeColor=#82b366;" parent="1" vertex="1">
          <mxGeometry x="175" y="1047" width="38" height="20" as="geometry" />
        </mxCell>
        <mxCell id="6VPZrVlqpcy0IsZP4w-S-98" value="" style="rounded=0;whiteSpace=wrap;html=1;fillColor=none;dashed=1;" parent="1" vertex="1">
          <mxGeometry x="420" y="996" width="333" height="161" as="geometry" />
        </mxCell>
        <mxCell id="S-Nv9ScUTfc7elyZ2DoP-2" value="Kunde" style="text;html=1;align=center;verticalAlign=middle;resizable=0;points=[];autosize=1;strokeColor=default;fillColor=none;" vertex="1" parent="1">
          <mxGeometry x="90" y="202" width="53" height="26" as="geometry" />
        </mxCell>
        <mxCell id="S-Nv9ScUTfc7elyZ2DoP-3" value="Besucher" style="text;html=1;align=center;verticalAlign=middle;resizable=0;points=[];autosize=1;strokeColor=default;fillColor=none;" vertex="1" parent="1">
          <mxGeometry x="76" y="327" width="69" height="26" as="geometry" />
        </mxCell>
        <mxCell id="S-Nv9ScUTfc7elyZ2DoP-4" value="" style="endArrow=none;dashed=1;html=1;rounded=0;entryX=1.019;entryY=0.549;entryDx=0;entryDy=0;entryPerimeter=0;exitX=0;exitY=0;exitDx=0;exitDy=0;" edge="1" parent="1" source="a9fmLc2zL0mOmBXYJ5F6-4" target="S-Nv9ScUTfc7elyZ2DoP-2">
          <mxGeometry width="50" height="50" relative="1" as="geometry">
            <mxPoint x="380" y="130" as="sourcePoint" />
            <mxPoint x="325" y="108" as="targetPoint" />
          </mxGeometry>
        </mxCell>
        <mxCell id="S-Nv9ScUTfc7elyZ2DoP-5" value="" style="endArrow=none;dashed=1;html=1;rounded=0;entryX=1.002;entryY=0.467;entryDx=0;entryDy=0;entryPerimeter=0;exitX=0;exitY=1;exitDx=0;exitDy=0;" edge="1" parent="1" source="a9fmLc2zL0mOmBXYJ5F6-4" target="S-Nv9ScUTfc7elyZ2DoP-3">
          <mxGeometry width="50" height="50" relative="1" as="geometry">
            <mxPoint x="178" y="293" as="sourcePoint" />
            <mxPoint x="147" y="248" as="targetPoint" />
          </mxGeometry>
        </mxCell>
        <mxCell id="S-Nv9ScUTfc7elyZ2DoP-6" value="1.1" style="rhombus;whiteSpace=wrap;html=1;fillColor=#f8cecc;strokeColor=#b85450;" vertex="1" parent="1">
          <mxGeometry x="145" y="220" width="30" height="32" as="geometry" />
        </mxCell>
        <mxCell id="S-Nv9ScUTfc7elyZ2DoP-10" value="" style="rounded=1;whiteSpace=wrap;html=1;fillColor=none;" vertex="1" parent="1">
          <mxGeometry x="384" y="404" width="63" height="117" as="geometry" />
        </mxCell>
        <mxCell id="S-Nv9ScUTfc7elyZ2DoP-7" value="1.2" style="rhombus;whiteSpace=wrap;html=1;fillColor=#f8cecc;strokeColor=#b85450;" vertex="1" parent="1">
          <mxGeometry x="148" y="307" width="30" height="32" as="geometry" />
        </mxCell>
        <mxCell id="S-Nv9ScUTfc7elyZ2DoP-12" value="4" style="rhombus;whiteSpace=wrap;html=1;fillColor=#e1d5e7;strokeColor=#9673a6;" vertex="1" parent="1">
          <mxGeometry x="400" y="484" width="30" height="32" as="geometry" />
        </mxCell>
        <mxCell id="S-Nv9ScUTfc7elyZ2DoP-18" value="" style="endArrow=none;dashed=1;html=1;strokeWidth=2;curved=1;fillColor=#f8cecc;strokeColor=#b85450;" edge="1" parent="1">
          <mxGeometry width="50" height="50" relative="1" as="geometry">
            <mxPoint x="576" y="257" as="sourcePoint" />
            <mxPoint x="576" y="307" as="targetPoint" />
            <Array as="points">
              <mxPoint x="556" y="284.5" />
            </Array>
          </mxGeometry>
        </mxCell>
        <mxCell id="S-Nv9ScUTfc7elyZ2DoP-19" value="A05" style="rounded=0;whiteSpace=wrap;html=1;fillColor=#fff2cc;strokeColor=#d6b656;" vertex="1" parent="1">
          <mxGeometry x="617" y="1066.5" width="38" height="20" as="geometry" />
        </mxCell>
        <mxCell id="S-Nv9ScUTfc7elyZ2DoP-20" value="C01" style="rounded=0;whiteSpace=wrap;html=1;fillColor=#d5e8d4;strokeColor=#82b366;" vertex="1" parent="1">
          <mxGeometry x="559" y="1066.5" width="38" height="20" as="geometry" />
        </mxCell>
        <mxCell id="S-Nv9ScUTfc7elyZ2DoP-21" value="" style="endArrow=none;dashed=1;html=1;rounded=0;entryX=1;entryY=0.5;entryDx=0;entryDy=0;exitX=0;exitY=0.5;exitDx=0;exitDy=0;fillColor=#f5f5f5;strokeColor=#666666;edgeStyle=orthogonalEdgeStyle;" edge="1" parent="1" source="S-Nv9ScUTfc7elyZ2DoP-19" target="S-Nv9ScUTfc7elyZ2DoP-20">
          <mxGeometry width="50" height="50" relative="1" as="geometry">
            <mxPoint x="554" y="1094" as="sourcePoint" />
            <mxPoint x="448" y="1074" as="targetPoint" />
          </mxGeometry>
        </mxCell>
        <mxCell id="S-Nv9ScUTfc7elyZ2DoP-25" value="" style="rounded=0;whiteSpace=wrap;html=1;fillColor=none;dashed=1;" vertex="1" parent="1">
          <mxGeometry x="70" y="1199" width="333" height="161" as="geometry" />
        </mxCell>
        <mxCell id="S-Nv9ScUTfc7elyZ2DoP-26" value="Web Client B (Sachbearbeiter)" style="text;html=1;align=center;verticalAlign=middle;resizable=0;points=[];autosize=1;strokeColor=default;fillColor=none;" vertex="1" parent="1">
          <mxGeometry x="77" y="1209" width="181" height="26" as="geometry" />
        </mxCell>
        <mxCell id="S-Nv9ScUTfc7elyZ2DoP-27" value="Backend" style="text;html=1;align=center;verticalAlign=middle;resizable=0;points=[];autosize=1;strokeColor=default;fillColor=none;" vertex="1" parent="1">
          <mxGeometry x="330" y="1209" width="65" height="26" as="geometry" />
        </mxCell>
        <mxCell id="S-Nv9ScUTfc7elyZ2DoP-28" value="" style="endArrow=classic;startArrow=classic;html=1;rounded=0;exitX=0;exitY=0.538;exitDx=0;exitDy=0;exitPerimeter=0;" edge="1" parent="1" source="S-Nv9ScUTfc7elyZ2DoP-27" target="S-Nv9ScUTfc7elyZ2DoP-26">
          <mxGeometry width="50" height="50" relative="1" as="geometry">
            <mxPoint x="374" y="1079" as="sourcePoint" />
            <mxPoint x="424" y="1029" as="targetPoint" />
          </mxGeometry>
        </mxCell>
        <mxCell id="S-Nv9ScUTfc7elyZ2DoP-29" value="2.1" style="rhombus;whiteSpace=wrap;html=1;fillColor=#dae8fc;strokeColor=#6c8ebf;" vertex="1" parent="1">
          <mxGeometry x="281" y="1206" width="30" height="32" as="geometry" />
        </mxCell>
        <mxCell id="S-Nv9ScUTfc7elyZ2DoP-30" value="" style="endArrow=none;dashed=1;html=1;curved=1;fillColor=#f8cecc;strokeColor=#b85450;" edge="1" parent="1">
          <mxGeometry width="50" height="50" relative="1" as="geometry">
            <mxPoint x="271" y="1207" as="sourcePoint" />
            <mxPoint x="271" y="1237" as="targetPoint" />
            <Array as="points">
              <mxPoint x="276" y="1222" />
            </Array>
          </mxGeometry>
        </mxCell>
        <mxCell id="S-Nv9ScUTfc7elyZ2DoP-31" value="Web Client A (Besucher)" style="text;html=1;align=center;verticalAlign=middle;resizable=0;points=[];autosize=1;strokeColor=default;fillColor=none;" vertex="1" parent="1">
          <mxGeometry x="425" y="1006" width="149" height="26" as="geometry" />
        </mxCell>
        <mxCell id="S-Nv9ScUTfc7elyZ2DoP-32" value="Backend" style="text;html=1;align=center;verticalAlign=middle;resizable=0;points=[];autosize=1;strokeColor=default;fillColor=none;" vertex="1" parent="1">
          <mxGeometry x="648" y="1006" width="65" height="26" as="geometry" />
        </mxCell>
        <mxCell id="S-Nv9ScUTfc7elyZ2DoP-33" value="" style="endArrow=classic;startArrow=classic;html=1;rounded=0;exitX=0;exitY=0.538;exitDx=0;exitDy=0;exitPerimeter=0;" edge="1" parent="1" source="S-Nv9ScUTfc7elyZ2DoP-32" target="S-Nv9ScUTfc7elyZ2DoP-31">
          <mxGeometry width="50" height="50" relative="1" as="geometry">
            <mxPoint x="722" y="876" as="sourcePoint" />
            <mxPoint x="772" y="826" as="targetPoint" />
          </mxGeometry>
        </mxCell>
        <mxCell id="S-Nv9ScUTfc7elyZ2DoP-34" value="1.2" style="rhombus;whiteSpace=wrap;html=1;fillColor=#f8cecc;strokeColor=#b85450;" vertex="1" parent="1">
          <mxGeometry x="599" y="1003" width="30" height="32" as="geometry" />
        </mxCell>
        <mxCell id="S-Nv9ScUTfc7elyZ2DoP-35" value="" style="endArrow=none;dashed=1;html=1;curved=1;fillColor=#f8cecc;strokeColor=#b85450;" edge="1" parent="1">
          <mxGeometry width="50" height="50" relative="1" as="geometry">
            <mxPoint x="582" y="1005" as="sourcePoint" />
            <mxPoint x="582" y="1035" as="targetPoint" />
            <Array as="points">
              <mxPoint x="587" y="1020" />
            </Array>
          </mxGeometry>
        </mxCell>
        <mxCell id="S-Nv9ScUTfc7elyZ2DoP-41" value="A06.0" style="rounded=0;whiteSpace=wrap;html=1;fillColor=#fff2cc;strokeColor=#d6b656;" vertex="1" parent="1">
          <mxGeometry x="190.5" y="1287" width="38" height="20" as="geometry" />
        </mxCell>
        <mxCell id="S-Nv9ScUTfc7elyZ2DoP-42" value="A06.1" style="rounded=0;whiteSpace=wrap;html=1;fillColor=#fff2cc;strokeColor=#d6b656;" vertex="1" parent="1">
          <mxGeometry x="228.5" y="1287" width="38" height="20" as="geometry" />
        </mxCell>
        <mxCell id="S-Nv9ScUTfc7elyZ2DoP-43" value="A06.3" style="rounded=0;whiteSpace=wrap;html=1;fillColor=#fff2cc;strokeColor=#d6b656;" vertex="1" parent="1">
          <mxGeometry x="266.5" y="1287" width="38" height="20" as="geometry" />
        </mxCell>
        <mxCell id="S-Nv9ScUTfc7elyZ2DoP-44" value="A06.4" style="rounded=0;whiteSpace=wrap;html=1;fillColor=#fff2cc;strokeColor=#d6b656;" vertex="1" parent="1">
          <mxGeometry x="304.5" y="1287" width="38" height="20" as="geometry" />
        </mxCell>
        <mxCell id="S-Nv9ScUTfc7elyZ2DoP-45" value="A03" style="rounded=0;whiteSpace=wrap;html=1;fillColor=#fff2cc;strokeColor=#d6b656;" vertex="1" parent="1">
          <mxGeometry x="148.5" y="1287" width="38" height="20" as="geometry" />
        </mxCell>
        <mxCell id="S-Nv9ScUTfc7elyZ2DoP-46" value="A07" style="rounded=0;whiteSpace=wrap;html=1;fillColor=#fff2cc;strokeColor=#d6b656;" vertex="1" parent="1">
          <mxGeometry x="347.5" y="1287" width="38" height="20" as="geometry" />
        </mxCell>
        <mxCell id="S-Nv9ScUTfc7elyZ2DoP-47" value="C06" style="rounded=0;whiteSpace=wrap;html=1;fillColor=#d5e8d4;strokeColor=#82b366;" vertex="1" parent="1">
          <mxGeometry x="241.5" y="1247" width="38" height="20" as="geometry" />
        </mxCell>
        <mxCell id="S-Nv9ScUTfc7elyZ2DoP-49" value="C02" style="rounded=0;whiteSpace=wrap;html=1;fillColor=#d5e8d4;strokeColor=#82b366;" vertex="1" parent="1">
          <mxGeometry x="241.5" y="1329" width="38" height="20" as="geometry" />
        </mxCell>
        <mxCell id="S-Nv9ScUTfc7elyZ2DoP-50" value="" style="endArrow=none;dashed=1;html=1;rounded=0;entryX=0.5;entryY=1;entryDx=0;entryDy=0;exitX=0.5;exitY=0;exitDx=0;exitDy=0;fillColor=#f5f5f5;strokeColor=#666666;edgeStyle=orthogonalEdgeStyle;" edge="1" parent="1" source="S-Nv9ScUTfc7elyZ2DoP-49" target="S-Nv9ScUTfc7elyZ2DoP-41">
          <mxGeometry width="50" height="50" relative="1" as="geometry">
            <mxPoint x="158.5" y="1275" as="sourcePoint" />
            <mxPoint x="139.5" y="1275" as="targetPoint" />
          </mxGeometry>
        </mxCell>
        <mxCell id="S-Nv9ScUTfc7elyZ2DoP-51" value="" style="endArrow=none;dashed=1;html=1;rounded=0;entryX=0.5;entryY=1;entryDx=0;entryDy=0;exitX=0.5;exitY=0;exitDx=0;exitDy=0;fillColor=#f5f5f5;strokeColor=#666666;edgeStyle=orthogonalEdgeStyle;" edge="1" parent="1" source="S-Nv9ScUTfc7elyZ2DoP-49" target="S-Nv9ScUTfc7elyZ2DoP-42">
          <mxGeometry width="50" height="50" relative="1" as="geometry">
            <mxPoint x="270.5" y="1299" as="sourcePoint" />
            <mxPoint x="219.5" y="1285" as="targetPoint" />
          </mxGeometry>
        </mxCell>
        <mxCell id="S-Nv9ScUTfc7elyZ2DoP-52" value="" style="endArrow=none;dashed=1;html=1;rounded=0;entryX=0.5;entryY=1;entryDx=0;entryDy=0;exitX=0.5;exitY=0;exitDx=0;exitDy=0;fillColor=#f5f5f5;strokeColor=#666666;edgeStyle=orthogonalEdgeStyle;" edge="1" parent="1" source="S-Nv9ScUTfc7elyZ2DoP-49" target="S-Nv9ScUTfc7elyZ2DoP-43">
          <mxGeometry width="50" height="50" relative="1" as="geometry">
            <mxPoint x="280.5" y="1309" as="sourcePoint" />
            <mxPoint x="229.5" y="1295" as="targetPoint" />
          </mxGeometry>
        </mxCell>
        <mxCell id="S-Nv9ScUTfc7elyZ2DoP-53" value="" style="endArrow=none;dashed=1;html=1;rounded=0;entryX=0.5;entryY=1;entryDx=0;entryDy=0;exitX=0.5;exitY=0;exitDx=0;exitDy=0;fillColor=#f5f5f5;strokeColor=#666666;edgeStyle=orthogonalEdgeStyle;" edge="1" parent="1" source="S-Nv9ScUTfc7elyZ2DoP-49" target="S-Nv9ScUTfc7elyZ2DoP-44">
          <mxGeometry width="50" height="50" relative="1" as="geometry">
            <mxPoint x="270.5" y="1299" as="sourcePoint" />
            <mxPoint x="295.5" y="1285" as="targetPoint" />
          </mxGeometry>
        </mxCell>
        <mxCell id="S-Nv9ScUTfc7elyZ2DoP-54" value="" style="endArrow=none;dashed=1;html=1;rounded=0;entryX=0.5;entryY=1;entryDx=0;entryDy=0;exitX=0.5;exitY=0;exitDx=0;exitDy=0;fillColor=#f5f5f5;strokeColor=#666666;edgeStyle=orthogonalEdgeStyle;" edge="1" parent="1" source="S-Nv9ScUTfc7elyZ2DoP-49" target="S-Nv9ScUTfc7elyZ2DoP-46">
          <mxGeometry width="50" height="50" relative="1" as="geometry">
            <mxPoint x="280.5" y="1309" as="sourcePoint" />
            <mxPoint x="305.5" y="1295" as="targetPoint" />
          </mxGeometry>
        </mxCell>
        <mxCell id="S-Nv9ScUTfc7elyZ2DoP-55" value="" style="endArrow=none;dashed=1;html=1;rounded=0;entryX=0.5;entryY=1;entryDx=0;entryDy=0;exitX=0.5;exitY=0;exitDx=0;exitDy=0;fillColor=#f5f5f5;strokeColor=#666666;edgeStyle=orthogonalEdgeStyle;" edge="1" parent="1" source="S-Nv9ScUTfc7elyZ2DoP-41" target="S-Nv9ScUTfc7elyZ2DoP-47">
          <mxGeometry width="50" height="50" relative="1" as="geometry">
            <mxPoint x="177.5" y="1290" as="sourcePoint" />
            <mxPoint x="270.5" y="1267" as="targetPoint" />
          </mxGeometry>
        </mxCell>
        <mxCell id="S-Nv9ScUTfc7elyZ2DoP-56" value="" style="endArrow=none;dashed=1;html=1;rounded=0;entryX=0.5;entryY=1;entryDx=0;entryDy=0;exitX=0.5;exitY=0;exitDx=0;exitDy=0;fillColor=#f5f5f5;strokeColor=#666666;edgeStyle=orthogonalEdgeStyle;" edge="1" parent="1" source="S-Nv9ScUTfc7elyZ2DoP-42" target="S-Nv9ScUTfc7elyZ2DoP-47">
          <mxGeometry width="50" height="50" relative="1" as="geometry">
            <mxPoint x="219.5" y="1290" as="sourcePoint" />
            <mxPoint x="270.5" y="1267" as="targetPoint" />
          </mxGeometry>
        </mxCell>
        <mxCell id="S-Nv9ScUTfc7elyZ2DoP-57" value="" style="endArrow=none;dashed=1;html=1;rounded=0;entryX=0.5;entryY=1;entryDx=0;entryDy=0;exitX=0.5;exitY=0;exitDx=0;exitDy=0;fillColor=#f5f5f5;strokeColor=#666666;edgeStyle=orthogonalEdgeStyle;" edge="1" parent="1" source="S-Nv9ScUTfc7elyZ2DoP-43" target="S-Nv9ScUTfc7elyZ2DoP-47">
          <mxGeometry width="50" height="50" relative="1" as="geometry">
            <mxPoint x="257.5" y="1290" as="sourcePoint" />
            <mxPoint x="270.5" y="1267" as="targetPoint" />
          </mxGeometry>
        </mxCell>
        <mxCell id="S-Nv9ScUTfc7elyZ2DoP-58" value="" style="endArrow=none;dashed=1;html=1;rounded=0;entryX=0.5;entryY=1;entryDx=0;entryDy=0;exitX=0.5;exitY=0;exitDx=0;exitDy=0;fillColor=#f5f5f5;strokeColor=#666666;edgeStyle=orthogonalEdgeStyle;" edge="1" parent="1" source="S-Nv9ScUTfc7elyZ2DoP-44" target="S-Nv9ScUTfc7elyZ2DoP-47">
          <mxGeometry width="50" height="50" relative="1" as="geometry">
            <mxPoint x="295.5" y="1290" as="sourcePoint" />
            <mxPoint x="270.5" y="1267" as="targetPoint" />
          </mxGeometry>
        </mxCell>
        <mxCell id="S-Nv9ScUTfc7elyZ2DoP-60" value="C05" style="rounded=0;whiteSpace=wrap;html=1;fillColor=#d5e8d4;strokeColor=#82b366;" vertex="1" parent="1">
          <mxGeometry x="87.5" y="1287" width="38" height="20" as="geometry" />
        </mxCell>
        <mxCell id="S-Nv9ScUTfc7elyZ2DoP-61" value="" style="endArrow=none;dashed=1;html=1;rounded=0;entryX=1;entryY=0.5;entryDx=0;entryDy=0;exitX=0;exitY=0.5;exitDx=0;exitDy=0;fillColor=#f5f5f5;strokeColor=#666666;edgeStyle=orthogonalEdgeStyle;" edge="1" parent="1" source="S-Nv9ScUTfc7elyZ2DoP-45" target="S-Nv9ScUTfc7elyZ2DoP-60">
          <mxGeometry width="50" height="50" relative="1" as="geometry">
            <mxPoint x="252.5" y="1234" as="sourcePoint" />
            <mxPoint x="302.5" y="1184" as="targetPoint" />
          </mxGeometry>
        </mxCell>
        <mxCell id="S-Nv9ScUTfc7elyZ2DoP-62" value="C08" style="rounded=0;whiteSpace=wrap;html=1;fillColor=#d5e8d4;strokeColor=#82b366;" vertex="1" parent="1">
          <mxGeometry x="148" y="1329" width="38" height="20" as="geometry" />
        </mxCell>
        <mxCell id="S-Nv9ScUTfc7elyZ2DoP-63" value="" style="endArrow=none;dashed=1;html=1;rounded=0;entryX=0.5;entryY=0;entryDx=0;entryDy=0;exitX=0.5;exitY=1;exitDx=0;exitDy=0;fillColor=#f5f5f5;strokeColor=#666666;edgeStyle=orthogonalEdgeStyle;" edge="1" parent="1" source="S-Nv9ScUTfc7elyZ2DoP-45" target="S-Nv9ScUTfc7elyZ2DoP-62">
          <mxGeometry width="50" height="50" relative="1" as="geometry">
            <mxPoint x="151.5" y="1327" as="sourcePoint" />
            <mxPoint x="135.5" y="1307" as="targetPoint" />
          </mxGeometry>
        </mxCell>
        <mxCell id="S-Nv9ScUTfc7elyZ2DoP-64" value="C03" style="rounded=0;whiteSpace=wrap;html=1;fillColor=#d5e8d4;strokeColor=#82b366;" vertex="1" parent="1">
          <mxGeometry x="180.5" y="1247" width="38" height="20" as="geometry" />
        </mxCell>
        <mxCell id="S-Nv9ScUTfc7elyZ2DoP-66" value="" style="rounded=0;whiteSpace=wrap;html=1;fillColor=none;dashed=1;" vertex="1" parent="1">
          <mxGeometry x="422" y="1199" width="333" height="161" as="geometry" />
        </mxCell>
        <mxCell id="S-Nv9ScUTfc7elyZ2DoP-67" value="Web Client B (Verwaltung)" style="text;html=1;align=center;verticalAlign=middle;resizable=0;points=[];autosize=1;strokeColor=default;fillColor=none;" vertex="1" parent="1">
          <mxGeometry x="440" y="1209" width="159" height="26" as="geometry" />
        </mxCell>
        <mxCell id="S-Nv9ScUTfc7elyZ2DoP-68" value="Backend" style="text;html=1;align=center;verticalAlign=middle;resizable=0;points=[];autosize=1;strokeColor=default;fillColor=none;" vertex="1" parent="1">
          <mxGeometry x="682" y="1209" width="65" height="26" as="geometry" />
        </mxCell>
        <mxCell id="S-Nv9ScUTfc7elyZ2DoP-69" value="" style="endArrow=classic;startArrow=classic;html=1;rounded=0;exitX=0;exitY=0.538;exitDx=0;exitDy=0;exitPerimeter=0;" edge="1" parent="1" source="S-Nv9ScUTfc7elyZ2DoP-68" target="S-Nv9ScUTfc7elyZ2DoP-67">
          <mxGeometry width="50" height="50" relative="1" as="geometry">
            <mxPoint x="726" y="1079" as="sourcePoint" />
            <mxPoint x="776" y="1029" as="targetPoint" />
          </mxGeometry>
        </mxCell>
        <mxCell id="S-Nv9ScUTfc7elyZ2DoP-70" value="2.2" style="rhombus;whiteSpace=wrap;html=1;fillColor=#dae8fc;strokeColor=#6c8ebf;" vertex="1" parent="1">
          <mxGeometry x="633" y="1206" width="30" height="32" as="geometry" />
        </mxCell>
        <mxCell id="S-Nv9ScUTfc7elyZ2DoP-71" value="" style="endArrow=none;dashed=1;html=1;curved=1;fillColor=#f8cecc;strokeColor=#b85450;" edge="1" parent="1">
          <mxGeometry width="50" height="50" relative="1" as="geometry">
            <mxPoint x="618.5" y="1207" as="sourcePoint" />
            <mxPoint x="618.5" y="1237" as="targetPoint" />
            <Array as="points">
              <mxPoint x="623.5" y="1222" />
            </Array>
          </mxGeometry>
        </mxCell>
        <mxCell id="S-Nv9ScUTfc7elyZ2DoP-72" value="A06.0" style="rounded=0;whiteSpace=wrap;html=1;fillColor=#fff2cc;strokeColor=#d6b656;" vertex="1" parent="1">
          <mxGeometry x="542.5" y="1287" width="38" height="20" as="geometry" />
        </mxCell>
        <mxCell id="S-Nv9ScUTfc7elyZ2DoP-73" value="A06.1" style="rounded=0;whiteSpace=wrap;html=1;fillColor=#fff2cc;strokeColor=#d6b656;" vertex="1" parent="1">
          <mxGeometry x="580.5" y="1287" width="38" height="20" as="geometry" />
        </mxCell>
        <mxCell id="S-Nv9ScUTfc7elyZ2DoP-74" value="A06.3" style="rounded=0;whiteSpace=wrap;html=1;fillColor=#fff2cc;strokeColor=#d6b656;" vertex="1" parent="1">
          <mxGeometry x="618.5" y="1287" width="38" height="20" as="geometry" />
        </mxCell>
        <mxCell id="S-Nv9ScUTfc7elyZ2DoP-75" value="A06.4" style="rounded=0;whiteSpace=wrap;html=1;fillColor=#fff2cc;strokeColor=#d6b656;" vertex="1" parent="1">
          <mxGeometry x="656.5" y="1287" width="38" height="20" as="geometry" />
        </mxCell>
        <mxCell id="S-Nv9ScUTfc7elyZ2DoP-76" value="A03" style="rounded=0;whiteSpace=wrap;html=1;fillColor=#fff2cc;strokeColor=#d6b656;" vertex="1" parent="1">
          <mxGeometry x="500.5" y="1287" width="38" height="20" as="geometry" />
        </mxCell>
        <mxCell id="S-Nv9ScUTfc7elyZ2DoP-77" value="A07" style="rounded=0;whiteSpace=wrap;html=1;fillColor=#fff2cc;strokeColor=#d6b656;" vertex="1" parent="1">
          <mxGeometry x="699.5" y="1287" width="38" height="20" as="geometry" />
        </mxCell>
        <mxCell id="S-Nv9ScUTfc7elyZ2DoP-80" value="C02" style="rounded=0;whiteSpace=wrap;html=1;fillColor=#d5e8d4;strokeColor=#82b366;" vertex="1" parent="1">
          <mxGeometry x="593.5" y="1329" width="38" height="20" as="geometry" />
        </mxCell>
        <mxCell id="S-Nv9ScUTfc7elyZ2DoP-81" value="" style="endArrow=none;dashed=1;html=1;rounded=0;entryX=0.5;entryY=1;entryDx=0;entryDy=0;exitX=0.5;exitY=0;exitDx=0;exitDy=0;fillColor=#f5f5f5;strokeColor=#666666;edgeStyle=orthogonalEdgeStyle;" edge="1" parent="1" source="S-Nv9ScUTfc7elyZ2DoP-80" target="S-Nv9ScUTfc7elyZ2DoP-72">
          <mxGeometry width="50" height="50" relative="1" as="geometry">
            <mxPoint x="510.5" y="1275" as="sourcePoint" />
            <mxPoint x="491.5" y="1275" as="targetPoint" />
          </mxGeometry>
        </mxCell>
        <mxCell id="S-Nv9ScUTfc7elyZ2DoP-82" value="" style="endArrow=none;dashed=1;html=1;rounded=0;entryX=0.5;entryY=1;entryDx=0;entryDy=0;exitX=0.5;exitY=0;exitDx=0;exitDy=0;fillColor=#f5f5f5;strokeColor=#666666;edgeStyle=orthogonalEdgeStyle;" edge="1" parent="1" source="S-Nv9ScUTfc7elyZ2DoP-80" target="S-Nv9ScUTfc7elyZ2DoP-73">
          <mxGeometry width="50" height="50" relative="1" as="geometry">
            <mxPoint x="622.5" y="1299" as="sourcePoint" />
            <mxPoint x="571.5" y="1285" as="targetPoint" />
          </mxGeometry>
        </mxCell>
        <mxCell id="S-Nv9ScUTfc7elyZ2DoP-83" value="" style="endArrow=none;dashed=1;html=1;rounded=0;entryX=0.5;entryY=1;entryDx=0;entryDy=0;exitX=0.5;exitY=0;exitDx=0;exitDy=0;fillColor=#f5f5f5;strokeColor=#666666;edgeStyle=orthogonalEdgeStyle;" edge="1" parent="1" source="S-Nv9ScUTfc7elyZ2DoP-80" target="S-Nv9ScUTfc7elyZ2DoP-74">
          <mxGeometry width="50" height="50" relative="1" as="geometry">
            <mxPoint x="632.5" y="1309" as="sourcePoint" />
            <mxPoint x="581.5" y="1295" as="targetPoint" />
          </mxGeometry>
        </mxCell>
        <mxCell id="S-Nv9ScUTfc7elyZ2DoP-84" value="" style="endArrow=none;dashed=1;html=1;rounded=0;entryX=0.5;entryY=1;entryDx=0;entryDy=0;exitX=0.5;exitY=0;exitDx=0;exitDy=0;fillColor=#f5f5f5;strokeColor=#666666;edgeStyle=orthogonalEdgeStyle;" edge="1" parent="1" source="S-Nv9ScUTfc7elyZ2DoP-80" target="S-Nv9ScUTfc7elyZ2DoP-75">
          <mxGeometry width="50" height="50" relative="1" as="geometry">
            <mxPoint x="622.5" y="1299" as="sourcePoint" />
            <mxPoint x="647.5" y="1285" as="targetPoint" />
          </mxGeometry>
        </mxCell>
        <mxCell id="S-Nv9ScUTfc7elyZ2DoP-85" value="" style="endArrow=none;dashed=1;html=1;rounded=0;entryX=0.5;entryY=1;entryDx=0;entryDy=0;exitX=0.5;exitY=0;exitDx=0;exitDy=0;fillColor=#f5f5f5;strokeColor=#666666;edgeStyle=orthogonalEdgeStyle;" edge="1" parent="1" source="S-Nv9ScUTfc7elyZ2DoP-80" target="S-Nv9ScUTfc7elyZ2DoP-77">
          <mxGeometry width="50" height="50" relative="1" as="geometry">
            <mxPoint x="632.5" y="1309" as="sourcePoint" />
            <mxPoint x="657.5" y="1295" as="targetPoint" />
          </mxGeometry>
        </mxCell>
        <mxCell id="S-Nv9ScUTfc7elyZ2DoP-91" value="C05" style="rounded=0;whiteSpace=wrap;html=1;fillColor=#d5e8d4;strokeColor=#82b366;" vertex="1" parent="1">
          <mxGeometry x="442.5" y="1287" width="38" height="20" as="geometry" />
        </mxCell>
        <mxCell id="S-Nv9ScUTfc7elyZ2DoP-92" value="" style="endArrow=none;dashed=1;html=1;rounded=0;entryX=1;entryY=0.5;entryDx=0;entryDy=0;exitX=0;exitY=0.5;exitDx=0;exitDy=0;fillColor=#f5f5f5;strokeColor=#666666;edgeStyle=orthogonalEdgeStyle;" edge="1" parent="1" source="S-Nv9ScUTfc7elyZ2DoP-76" target="S-Nv9ScUTfc7elyZ2DoP-91">
          <mxGeometry width="50" height="50" relative="1" as="geometry">
            <mxPoint x="604.5" y="1234" as="sourcePoint" />
            <mxPoint x="654.5" y="1184" as="targetPoint" />
          </mxGeometry>
        </mxCell>
        <mxCell id="S-Nv9ScUTfc7elyZ2DoP-93" value="C08" style="rounded=0;whiteSpace=wrap;html=1;fillColor=#d5e8d4;strokeColor=#82b366;" vertex="1" parent="1">
          <mxGeometry x="500.5" y="1326" width="38" height="20" as="geometry" />
        </mxCell>
        <mxCell id="S-Nv9ScUTfc7elyZ2DoP-94" value="" style="endArrow=none;dashed=1;html=1;rounded=0;entryX=0.5;entryY=0;entryDx=0;entryDy=0;exitX=0.5;exitY=1;exitDx=0;exitDy=0;fillColor=#f5f5f5;strokeColor=#666666;edgeStyle=orthogonalEdgeStyle;" edge="1" parent="1" source="S-Nv9ScUTfc7elyZ2DoP-76" target="S-Nv9ScUTfc7elyZ2DoP-93">
          <mxGeometry width="50" height="50" relative="1" as="geometry">
            <mxPoint x="503.5" y="1327" as="sourcePoint" />
            <mxPoint x="487.5" y="1307" as="targetPoint" />
          </mxGeometry>
        </mxCell>
        <mxCell id="S-Nv9ScUTfc7elyZ2DoP-95" value="C03" style="rounded=0;whiteSpace=wrap;html=1;fillColor=#d5e8d4;strokeColor=#82b366;" vertex="1" parent="1">
          <mxGeometry x="532.5" y="1247" width="38" height="20" as="geometry" />
        </mxCell>
        <mxCell id="S-Nv9ScUTfc7elyZ2DoP-97" value="" style="rounded=0;whiteSpace=wrap;html=1;fillColor=none;dashed=1;" vertex="1" parent="1">
          <mxGeometry x="70" y="1380" width="333" height="161" as="geometry" />
        </mxCell>
        <mxCell id="S-Nv9ScUTfc7elyZ2DoP-98" value="Backend" style="text;html=1;align=center;verticalAlign=middle;resizable=0;points=[];autosize=1;strokeColor=default;fillColor=none;" vertex="1" parent="1">
          <mxGeometry x="76" y="1390" width="65" height="26" as="geometry" />
        </mxCell>
        <mxCell id="S-Nv9ScUTfc7elyZ2DoP-99" value="DB" style="text;html=1;align=center;verticalAlign=middle;resizable=0;points=[];autosize=1;strokeColor=default;fillColor=none;" vertex="1" parent="1">
          <mxGeometry x="246" y="1390" width="35" height="26" as="geometry" />
        </mxCell>
        <mxCell id="S-Nv9ScUTfc7elyZ2DoP-100" value="" style="endArrow=classic;startArrow=classic;html=1;rounded=0;exitX=0;exitY=0.538;exitDx=0;exitDy=0;exitPerimeter=0;" edge="1" parent="1" source="S-Nv9ScUTfc7elyZ2DoP-99" target="S-Nv9ScUTfc7elyZ2DoP-98">
          <mxGeometry width="50" height="50" relative="1" as="geometry">
            <mxPoint x="315" y="1260" as="sourcePoint" />
            <mxPoint x="365" y="1210" as="targetPoint" />
          </mxGeometry>
        </mxCell>
        <mxCell id="S-Nv9ScUTfc7elyZ2DoP-101" value="3" style="rhombus;whiteSpace=wrap;html=1;fillColor=#d5e8d4;strokeColor=#82b366;" vertex="1" parent="1">
          <mxGeometry x="183" y="1387" width="30" height="32" as="geometry" />
        </mxCell>
        <mxCell id="S-Nv9ScUTfc7elyZ2DoP-102" value="" style="endArrow=none;dashed=1;html=1;curved=1;fillColor=#f8cecc;strokeColor=#b85450;" edge="1" parent="1">
          <mxGeometry width="50" height="50" relative="1" as="geometry">
            <mxPoint x="165" y="1388" as="sourcePoint" />
            <mxPoint x="165" y="1418" as="targetPoint" />
            <Array as="points">
              <mxPoint x="170" y="1403" />
            </Array>
          </mxGeometry>
        </mxCell>
        <mxCell id="S-Nv9ScUTfc7elyZ2DoP-103" value="A06.0" style="rounded=0;whiteSpace=wrap;html=1;fillColor=#fff2cc;strokeColor=#d6b656;" vertex="1" parent="1">
          <mxGeometry x="190.5" y="1468" width="38" height="20" as="geometry" />
        </mxCell>
        <mxCell id="S-Nv9ScUTfc7elyZ2DoP-104" value="A06.1" style="rounded=0;whiteSpace=wrap;html=1;fillColor=#fff2cc;strokeColor=#d6b656;" vertex="1" parent="1">
          <mxGeometry x="228.5" y="1468" width="38" height="20" as="geometry" />
        </mxCell>
        <mxCell id="S-Nv9ScUTfc7elyZ2DoP-105" value="A06.2" style="rounded=0;whiteSpace=wrap;html=1;fillColor=#fff2cc;strokeColor=#d6b656;" vertex="1" parent="1">
          <mxGeometry x="266.5" y="1468" width="38" height="20" as="geometry" />
        </mxCell>
        <mxCell id="S-Nv9ScUTfc7elyZ2DoP-106" value="A06.4" style="rounded=0;whiteSpace=wrap;html=1;fillColor=#fff2cc;strokeColor=#d6b656;" vertex="1" parent="1">
          <mxGeometry x="304.5" y="1468" width="38" height="20" as="geometry" />
        </mxCell>
        <mxCell id="S-Nv9ScUTfc7elyZ2DoP-107" value="A04" style="rounded=0;whiteSpace=wrap;html=1;fillColor=#fff2cc;strokeColor=#d6b656;" vertex="1" parent="1">
          <mxGeometry x="148.5" y="1468" width="38" height="20" as="geometry" />
        </mxCell>
        <mxCell id="S-Nv9ScUTfc7elyZ2DoP-108" value="A07" style="rounded=0;whiteSpace=wrap;html=1;fillColor=#fff2cc;strokeColor=#d6b656;" vertex="1" parent="1">
          <mxGeometry x="347.5" y="1468" width="38" height="20" as="geometry" />
        </mxCell>
        <mxCell id="S-Nv9ScUTfc7elyZ2DoP-122" value="C05" style="rounded=0;whiteSpace=wrap;html=1;fillColor=#d5e8d4;strokeColor=#82b366;" vertex="1" parent="1">
          <mxGeometry x="87.5" y="1468" width="38" height="20" as="geometry" />
        </mxCell>
        <mxCell id="S-Nv9ScUTfc7elyZ2DoP-123" value="" style="endArrow=none;dashed=1;html=1;rounded=0;entryX=1;entryY=0.5;entryDx=0;entryDy=0;exitX=0;exitY=0.5;exitDx=0;exitDy=0;fillColor=#f5f5f5;strokeColor=#666666;edgeStyle=orthogonalEdgeStyle;" edge="1" parent="1" source="S-Nv9ScUTfc7elyZ2DoP-107" target="S-Nv9ScUTfc7elyZ2DoP-122">
          <mxGeometry width="50" height="50" relative="1" as="geometry">
            <mxPoint x="252.5" y="1415" as="sourcePoint" />
            <mxPoint x="302.5" y="1365" as="targetPoint" />
          </mxGeometry>
        </mxCell>
        <mxCell id="S-Nv9ScUTfc7elyZ2DoP-128" value="C01" style="rounded=0;whiteSpace=wrap;html=1;fillColor=#d5e8d4;strokeColor=#82b366;" vertex="1" parent="1">
          <mxGeometry x="142.5" y="1247" width="38" height="20" as="geometry" />
        </mxCell>
        <mxCell id="S-Nv9ScUTfc7elyZ2DoP-129" value="C01" style="rounded=0;whiteSpace=wrap;html=1;fillColor=#d5e8d4;strokeColor=#82b366;" vertex="1" parent="1">
          <mxGeometry x="494.5" y="1247" width="38" height="20" as="geometry" />
        </mxCell>
        <mxCell id="S-Nv9ScUTfc7elyZ2DoP-130" value="" style="rounded=0;whiteSpace=wrap;html=1;fillColor=none;dashed=1;" vertex="1" parent="1">
          <mxGeometry x="422" y="1380" width="333" height="161" as="geometry" />
        </mxCell>
        <mxCell id="S-Nv9ScUTfc7elyZ2DoP-131" value="DB" style="text;html=1;align=center;verticalAlign=middle;resizable=0;points=[];autosize=1;strokeColor=default;fillColor=none;" vertex="1" parent="1">
          <mxGeometry x="451" y="1390" width="35" height="26" as="geometry" />
        </mxCell>
        <mxCell id="S-Nv9ScUTfc7elyZ2DoP-134" value="4" style="rhombus;whiteSpace=wrap;html=1;fillColor=#e1d5e7;strokeColor=#9673a6;" vertex="1" parent="1">
          <mxGeometry x="494.5" y="1387" width="30" height="32" as="geometry" />
        </mxCell>
        <mxCell id="S-Nv9ScUTfc7elyZ2DoP-136" value="A06.0" style="rounded=0;whiteSpace=wrap;html=1;fillColor=#fff2cc;strokeColor=#d6b656;" vertex="1" parent="1">
          <mxGeometry x="585" y="1468" width="38" height="20" as="geometry" />
        </mxCell>
        <mxCell id="S-Nv9ScUTfc7elyZ2DoP-137" value="A06.1" style="rounded=0;whiteSpace=wrap;html=1;fillColor=#fff2cc;strokeColor=#d6b656;" vertex="1" parent="1">
          <mxGeometry x="623" y="1468" width="38" height="20" as="geometry" />
        </mxCell>
        <mxCell id="S-Nv9ScUTfc7elyZ2DoP-138" value="A06.2" style="rounded=0;whiteSpace=wrap;html=1;fillColor=#fff2cc;strokeColor=#d6b656;" vertex="1" parent="1">
          <mxGeometry x="661" y="1468" width="38" height="20" as="geometry" />
        </mxCell>
        <mxCell id="S-Nv9ScUTfc7elyZ2DoP-140" value="A03" style="rounded=0;whiteSpace=wrap;html=1;fillColor=#fff2cc;strokeColor=#d6b656;" vertex="1" parent="1">
          <mxGeometry x="500.5" y="1468" width="38" height="20" as="geometry" />
        </mxCell>
        <mxCell id="S-Nv9ScUTfc7elyZ2DoP-141" value="A07" style="rounded=0;whiteSpace=wrap;html=1;fillColor=#fff2cc;strokeColor=#d6b656;" vertex="1" parent="1">
          <mxGeometry x="703" y="1468" width="38" height="20" as="geometry" />
        </mxCell>
        <mxCell id="S-Nv9ScUTfc7elyZ2DoP-155" value="C08" style="rounded=0;whiteSpace=wrap;html=1;fillColor=#d5e8d4;strokeColor=#82b366;" vertex="1" parent="1">
          <mxGeometry x="480.5" y="1505" width="38" height="20" as="geometry" />
        </mxCell>
        <mxCell id="S-Nv9ScUTfc7elyZ2DoP-156" value="" style="endArrow=none;dashed=1;html=1;rounded=0;entryX=0.5;entryY=0;entryDx=0;entryDy=0;exitX=0.5;exitY=1;exitDx=0;exitDy=0;fillColor=#f5f5f5;strokeColor=#666666;edgeStyle=orthogonalEdgeStyle;" edge="1" parent="1" source="S-Nv9ScUTfc7elyZ2DoP-140" target="S-Nv9ScUTfc7elyZ2DoP-155">
          <mxGeometry width="50" height="50" relative="1" as="geometry">
            <mxPoint x="604.5" y="1415" as="sourcePoint" />
            <mxPoint x="654.5" y="1365" as="targetPoint" />
          </mxGeometry>
        </mxCell>
        <mxCell id="S-Nv9ScUTfc7elyZ2DoP-157" value="C07" style="rounded=0;whiteSpace=wrap;html=1;fillColor=#d5e8d4;strokeColor=#82b366;" vertex="1" parent="1">
          <mxGeometry x="462.5" y="1430" width="38" height="20" as="geometry" />
        </mxCell>
        <mxCell id="S-Nv9ScUTfc7elyZ2DoP-158" value="A01" style="rounded=0;whiteSpace=wrap;html=1;fillColor=#fff2cc;strokeColor=#d6b656;" vertex="1" parent="1">
          <mxGeometry x="462.5" y="1468" width="38" height="20" as="geometry" />
        </mxCell>
        <mxCell id="S-Nv9ScUTfc7elyZ2DoP-159" value="" style="endArrow=none;dashed=1;html=1;rounded=0;entryX=0.5;entryY=0;entryDx=0;entryDy=0;exitX=0.5;exitY=1;exitDx=0;exitDy=0;fillColor=#f5f5f5;strokeColor=#666666;edgeStyle=orthogonalEdgeStyle;" edge="1" parent="1" source="S-Nv9ScUTfc7elyZ2DoP-158" target="S-Nv9ScUTfc7elyZ2DoP-155">
          <mxGeometry width="50" height="50" relative="1" as="geometry">
            <mxPoint x="530" y="1498" as="sourcePoint" />
            <mxPoint x="513" y="1520" as="targetPoint" />
          </mxGeometry>
        </mxCell>
        <mxCell id="S-Nv9ScUTfc7elyZ2DoP-161" value="C05" style="rounded=0;whiteSpace=wrap;html=1;fillColor=#d5e8d4;strokeColor=#82b366;" vertex="1" parent="1">
          <mxGeometry x="540" y="1428" width="38" height="20" as="geometry" />
        </mxCell>
        <mxCell id="S-Nv9ScUTfc7elyZ2DoP-162" value="A08" style="rounded=0;whiteSpace=wrap;html=1;fillColor=#fff2cc;strokeColor=#d6b656;" vertex="1" parent="1">
          <mxGeometry x="595" y="1428" width="38" height="20" as="geometry" />
        </mxCell>
        <mxCell id="S-Nv9ScUTfc7elyZ2DoP-166" value="" style="endArrow=none;dashed=1;html=1;rounded=0;entryX=1;entryY=0.5;entryDx=0;entryDy=0;exitX=0;exitY=0.5;exitDx=0;exitDy=0;fillColor=#f5f5f5;strokeColor=#666666;edgeStyle=orthogonalEdgeStyle;" edge="1" parent="1" source="S-Nv9ScUTfc7elyZ2DoP-162" target="S-Nv9ScUTfc7elyZ2DoP-161">
          <mxGeometry width="50" height="50" relative="1" as="geometry">
            <mxPoint x="584" y="1411" as="sourcePoint" />
            <mxPoint x="564" y="1411" as="targetPoint" />
          </mxGeometry>
        </mxCell>
        <mxCell id="S-Nv9ScUTfc7elyZ2DoP-167" value="A05" style="rounded=0;whiteSpace=wrap;html=1;fillColor=#fff2cc;strokeColor=#d6b656;" vertex="1" parent="1">
          <mxGeometry x="542.5" y="1468" width="38" height="20" as="geometry" />
        </mxCell>
        <mxCell id="S-Nv9ScUTfc7elyZ2DoP-168" value="A06.4" style="rounded=0;whiteSpace=wrap;html=1;fillColor=#fff2cc;strokeColor=#d6b656;" vertex="1" parent="1">
          <mxGeometry x="585" y="1488" width="38" height="20" as="geometry" />
        </mxCell>
        <mxCell id="S-Nv9ScUTfc7elyZ2DoP-169" value="" style="rounded=0;whiteSpace=wrap;html=1;fillColor=none;dashed=1;" vertex="1" parent="1">
          <mxGeometry x="70" y="1567" width="333" height="161" as="geometry" />
        </mxCell>
        <mxCell id="S-Nv9ScUTfc7elyZ2DoP-170" value="Backend" style="text;html=1;align=center;verticalAlign=middle;resizable=0;points=[];autosize=1;strokeColor=default;fillColor=none;" vertex="1" parent="1">
          <mxGeometry x="76" y="1577" width="65" height="26" as="geometry" />
        </mxCell>
        <mxCell id="S-Nv9ScUTfc7elyZ2DoP-171" value="Messtellen API" style="text;html=1;align=center;verticalAlign=middle;resizable=0;points=[];autosize=1;strokeColor=default;fillColor=none;" vertex="1" parent="1">
          <mxGeometry x="258" y="1577" width="97" height="26" as="geometry" />
        </mxCell>
        <mxCell id="S-Nv9ScUTfc7elyZ2DoP-172" value="" style="endArrow=classic;startArrow=classic;html=1;rounded=0;exitX=0;exitY=0.538;exitDx=0;exitDy=0;exitPerimeter=0;" edge="1" parent="1" source="S-Nv9ScUTfc7elyZ2DoP-171" target="S-Nv9ScUTfc7elyZ2DoP-170">
          <mxGeometry width="50" height="50" relative="1" as="geometry">
            <mxPoint x="315" y="1447" as="sourcePoint" />
            <mxPoint x="365" y="1397" as="targetPoint" />
          </mxGeometry>
        </mxCell>
        <mxCell id="S-Nv9ScUTfc7elyZ2DoP-173" value="3" style="rhombus;whiteSpace=wrap;html=1;fillColor=#f5f5f5;strokeColor=#666666;fontColor=#333333;" vertex="1" parent="1">
          <mxGeometry x="183" y="1574" width="30" height="32" as="geometry" />
        </mxCell>
        <mxCell id="S-Nv9ScUTfc7elyZ2DoP-174" value="" style="endArrow=none;dashed=1;html=1;curved=1;fillColor=#f8cecc;strokeColor=#b85450;" edge="1" parent="1">
          <mxGeometry width="50" height="50" relative="1" as="geometry">
            <mxPoint x="165" y="1575" as="sourcePoint" />
            <mxPoint x="165" y="1605" as="targetPoint" />
            <Array as="points">
              <mxPoint x="170" y="1590" />
            </Array>
          </mxGeometry>
        </mxCell>
        <mxCell id="S-Nv9ScUTfc7elyZ2DoP-175" value="A06.3" style="rounded=0;whiteSpace=wrap;html=1;fillColor=#fff2cc;strokeColor=#d6b656;" vertex="1" parent="1">
          <mxGeometry x="190.5" y="1655" width="38" height="20" as="geometry" />
        </mxCell>
        <mxCell id="S-Nv9ScUTfc7elyZ2DoP-179" value="A03" style="rounded=0;whiteSpace=wrap;html=1;fillColor=#fff2cc;strokeColor=#d6b656;" vertex="1" parent="1">
          <mxGeometry x="148.5" y="1655" width="38" height="20" as="geometry" />
        </mxCell>
        <mxCell id="S-Nv9ScUTfc7elyZ2DoP-181" value="C01" style="rounded=0;whiteSpace=wrap;html=1;fillColor=#d5e8d4;strokeColor=#82b366;" vertex="1" parent="1">
          <mxGeometry x="117" y="1615" width="38" height="20" as="geometry" />
        </mxCell>
        <mxCell id="S-Nv9ScUTfc7elyZ2DoP-194" value="C05" style="rounded=0;whiteSpace=wrap;html=1;fillColor=#d5e8d4;strokeColor=#82b366;" vertex="1" parent="1">
          <mxGeometry x="87.5" y="1655" width="38" height="20" as="geometry" />
        </mxCell>
        <mxCell id="S-Nv9ScUTfc7elyZ2DoP-195" value="" style="endArrow=none;dashed=1;html=1;rounded=0;entryX=1;entryY=0.5;entryDx=0;entryDy=0;exitX=0;exitY=0.5;exitDx=0;exitDy=0;fillColor=#f5f5f5;strokeColor=#666666;edgeStyle=orthogonalEdgeStyle;" edge="1" parent="1" source="S-Nv9ScUTfc7elyZ2DoP-179" target="S-Nv9ScUTfc7elyZ2DoP-194">
          <mxGeometry width="50" height="50" relative="1" as="geometry">
            <mxPoint x="252.5" y="1602" as="sourcePoint" />
            <mxPoint x="302.5" y="1552" as="targetPoint" />
          </mxGeometry>
        </mxCell>
        <mxCell id="S-Nv9ScUTfc7elyZ2DoP-197" value="A05" style="rounded=0;whiteSpace=wrap;html=1;fillColor=#fff2cc;strokeColor=#d6b656;" vertex="1" parent="1">
          <mxGeometry x="190.5" y="1448" width="38" height="20" as="geometry" />
        </mxCell>
        <mxCell id="S-Nv9ScUTfc7elyZ2DoP-198" value="C01" style="rounded=0;whiteSpace=wrap;html=1;fillColor=#d5e8d4;strokeColor=#82b366;" vertex="1" parent="1">
          <mxGeometry x="120" y="1428" width="38" height="20" as="geometry" />
        </mxCell>
      </root>
    </mxGraphModel>
  </diagram>
  <diagram id="Nh0qp-q8o9aIVKWmlX_t" name="Module">
    <mxGraphModel dx="989" dy="1778" grid="1" gridSize="10" guides="1" tooltips="1" connect="1" arrows="1" fold="1" page="1" pageScale="1" pageWidth="827" pageHeight="1169" math="0" shadow="0">
      <root>
        <mxCell id="0" />
        <mxCell id="1" parent="0" />
        <mxCell id="u7Bl7HCfeM_NFQaf88g9-2" value="&lt;b&gt;Kundenverwaltung&lt;/b&gt;" style="rounded=1;whiteSpace=wrap;html=1;verticalAlign=top;" parent="1" vertex="1">
          <mxGeometry x="140" y="-10" width="150" height="150" as="geometry" />
        </mxCell>
        <mxCell id="u7Bl7HCfeM_NFQaf88g9-7" value="&lt;b&gt;Messdatenverwaltung&lt;/b&gt;" style="rounded=1;whiteSpace=wrap;html=1;verticalAlign=top;" parent="1" vertex="1">
          <mxGeometry x="140" y="330" width="150" height="150" as="geometry" />
        </mxCell>
        <mxCell id="u7Bl7HCfeM_NFQaf88g9-8" value="&lt;b&gt;Rechnungsverwaltung&lt;/b&gt;" style="rounded=1;whiteSpace=wrap;html=1;verticalAlign=top;" parent="1" vertex="1">
          <mxGeometry x="140" y="500" width="150" height="150" as="geometry" />
        </mxCell>
        <mxCell id="u7Bl7HCfeM_NFQaf88g9-21" value="" style="rounded=1;whiteSpace=wrap;html=1;verticalAlign=middle;align=center;" parent="1" vertex="1">
          <mxGeometry x="180" y="530" width="310" height="110" as="geometry" />
        </mxCell>
        <mxCell id="u7Bl7HCfeM_NFQaf88g9-9" value="&lt;b&gt;Vertragsverwaltung&lt;/b&gt;" style="rounded=1;whiteSpace=wrap;html=1;verticalAlign=top;" parent="1" vertex="1">
          <mxGeometry x="140" y="160" width="150" height="150" as="geometry" />
        </mxCell>
        <mxCell id="5m-vButz6sQsNuGqZCVK-1" value="" style="rounded=1;whiteSpace=wrap;html=1;verticalAlign=middle;align=center;" vertex="1" parent="1">
          <mxGeometry x="174" y="20" width="280" height="110" as="geometry" />
        </mxCell>
        <mxCell id="u7Bl7HCfeM_NFQaf88g9-12" value="Neukunden" style="rounded=1;whiteSpace=wrap;html=1;verticalAlign=middle;align=center;" parent="1" vertex="1">
          <mxGeometry x="190" y="30" width="100" height="40" as="geometry" />
        </mxCell>
        <mxCell id="u7Bl7HCfeM_NFQaf88g9-13" value="Bestandskunden" style="rounded=1;whiteSpace=wrap;html=1;verticalAlign=middle;align=center;" parent="1" vertex="1">
          <mxGeometry x="190" y="80" width="100" height="40" as="geometry" />
        </mxCell>
        <mxCell id="u7Bl7HCfeM_NFQaf88g9-20" value="" style="rounded=1;whiteSpace=wrap;html=1;verticalAlign=middle;align=center;" parent="1" vertex="1">
          <mxGeometry x="180" y="190" width="280" height="110" as="geometry" />
        </mxCell>
        <mxCell id="u7Bl7HCfeM_NFQaf88g9-14" value="Neuverträge" style="rounded=1;whiteSpace=wrap;html=1;verticalAlign=middle;align=center;" parent="1" vertex="1">
          <mxGeometry x="190" y="200" width="120" height="40" as="geometry" />
        </mxCell>
        <mxCell id="u7Bl7HCfeM_NFQaf88g9-15" value="Tarifwechsel" style="rounded=1;whiteSpace=wrap;html=1;verticalAlign=middle;align=center;" parent="1" vertex="1">
          <mxGeometry x="190" y="250" width="120" height="40" as="geometry" />
        </mxCell>
        <mxCell id="u7Bl7HCfeM_NFQaf88g9-17" value="Offene Rechnungen" style="rounded=1;whiteSpace=wrap;html=1;verticalAlign=middle;align=center;" parent="1" vertex="1">
          <mxGeometry x="190" y="540" width="120" height="40" as="geometry" />
        </mxCell>
        <mxCell id="u7Bl7HCfeM_NFQaf88g9-18" value="Neue Rechnungen" style="rounded=1;whiteSpace=wrap;html=1;verticalAlign=middle;align=center;" parent="1" vertex="1">
          <mxGeometry x="190" y="590" width="120" height="40" as="geometry" />
        </mxCell>
        <mxCell id="u7Bl7HCfeM_NFQaf88g9-19" value="Vertragsänderungen" style="rounded=1;whiteSpace=wrap;html=1;verticalAlign=middle;align=center;" parent="1" vertex="1">
          <mxGeometry x="320" y="200" width="120" height="40" as="geometry" />
        </mxCell>
        <mxCell id="5m-vButz6sQsNuGqZCVK-2" value="" style="rounded=1;whiteSpace=wrap;html=1;verticalAlign=middle;align=center;" vertex="1" parent="1">
          <mxGeometry x="174" y="360" width="306" height="110" as="geometry" />
        </mxCell>
        <mxCell id="5m-vButz6sQsNuGqZCVK-3" value="Messdaten History" style="rounded=1;whiteSpace=wrap;html=1;verticalAlign=middle;align=center;" vertex="1" parent="1">
          <mxGeometry x="190" y="370" width="120" height="40" as="geometry" />
        </mxCell>
        <mxCell id="5m-vButz6sQsNuGqZCVK-4" value="aktueller Verbrauch" style="rounded=1;whiteSpace=wrap;html=1;verticalAlign=middle;align=center;" vertex="1" parent="1">
          <mxGeometry x="190" y="420" width="120" height="40" as="geometry" />
        </mxCell>
        <mxCell id="5m-vButz6sQsNuGqZCVK-5" value="Messdaten hinzufügen" style="rounded=1;whiteSpace=wrap;html=1;verticalAlign=middle;align=center;" vertex="1" parent="1">
          <mxGeometry x="320" y="370" width="120" height="40" as="geometry" />
        </mxCell>
        <mxCell id="5m-vButz6sQsNuGqZCVK-7" value="Jahresabschluss" style="rounded=1;whiteSpace=wrap;html=1;verticalAlign=middle;align=center;" vertex="1" parent="1">
          <mxGeometry x="320" y="590" width="120" height="40" as="geometry" />
        </mxCell>
        <mxCell id="5m-vButz6sQsNuGqZCVK-8" value="Abschlagsrechnung" style="rounded=1;whiteSpace=wrap;html=1;verticalAlign=middle;align=center;" vertex="1" parent="1">
          <mxGeometry x="320" y="540" width="120" height="40" as="geometry" />
        </mxCell>
        <mxCell id="5m-vButz6sQsNuGqZCVK-9" value="Angebote" style="rounded=1;whiteSpace=wrap;html=1;verticalAlign=middle;align=center;" vertex="1" parent="1">
          <mxGeometry x="320" y="250" width="120" height="40" as="geometry" />
        </mxCell>
      </root>
    </mxGraphModel>
  </diagram>
  <diagram id="BIbAVcb7IbreajDMKyBg" name="Requiremends">
    <mxGraphModel dx="1434" dy="883" grid="1" gridSize="10" guides="1" tooltips="1" connect="1" arrows="1" fold="1" page="1" pageScale="1" pageWidth="827" pageHeight="1169" math="0" shadow="0">
      <root>
        <mxCell id="0" />
        <mxCell id="1" parent="0" />
        <mxCell id="LVB-ELp5UBCnKiiKgtIm-18" value="funktionelle Anforderungen" style="ellipse;whiteSpace=wrap;html=1;fillColor=#e1d5e7;strokeColor=#9673a6;" parent="1" vertex="1">
          <mxGeometry x="280" y="240" width="120" height="60" as="geometry" />
        </mxCell>
        <mxCell id="LVB-ELp5UBCnKiiKgtIm-19" value="Anlegen von Neukunden" style="text;html=1;strokeColor=none;fillColor=none;align=left;verticalAlign=middle;whiteSpace=wrap;rounded=0;" parent="1" vertex="1">
          <mxGeometry x="150" y="80" width="180" height="30" as="geometry" />
        </mxCell>
        <mxCell id="LVB-ELp5UBCnKiiKgtIm-20" value="Neuen Vertrag Anlegen" style="text;html=1;align=left;verticalAlign=middle;resizable=0;points=[];autosize=1;strokeColor=none;fillColor=none;" parent="1" vertex="1">
          <mxGeometry x="150" y="50" width="150" height="30" as="geometry" />
        </mxCell>
        <mxCell id="Ywq3Dxgv3e_k-Miv9mct-1" value="Vertrag freigeben" style="text;html=1;align=left;verticalAlign=middle;resizable=0;points=[];autosize=1;strokeColor=none;fillColor=none;" parent="1" vertex="1">
          <mxGeometry x="150" y="20" width="120" height="30" as="geometry" />
        </mxCell>
        <mxCell id="Ywq3Dxgv3e_k-Miv9mct-2" value="Anpassen von Kundendaten&amp;nbsp;" style="text;html=1;strokeColor=none;fillColor=none;align=left;verticalAlign=middle;whiteSpace=wrap;rounded=0;" parent="1" vertex="1">
          <mxGeometry x="150" y="110" width="240" height="30" as="geometry" />
        </mxCell>
        <mxCell id="Ywq3Dxgv3e_k-Miv9mct-3" value="Einsehen von Kundendaten" style="text;html=1;strokeColor=none;fillColor=none;align=left;verticalAlign=middle;whiteSpace=wrap;rounded=0;" parent="1" vertex="1">
          <mxGeometry x="150" y="140" width="150" height="30" as="geometry" />
        </mxCell>
        <mxCell id="Ywq3Dxgv3e_k-Miv9mct-4" value="Rechnungen ausstellen" style="text;html=1;strokeColor=none;fillColor=none;align=left;verticalAlign=middle;whiteSpace=wrap;rounded=0;" parent="1" vertex="1">
          <mxGeometry x="150" y="170" width="150" height="30" as="geometry" />
        </mxCell>
      </root>
    </mxGraphModel>
  </diagram>
</mxfile>
